<?xml version="1.0" standalone="no"?>
<!DOCTYPE svg PUBLIC "-//W3C//DTD SVG 1.1//EN" "http://www.w3.org/Graphics/SVG/1.1/DTD/svg11.dtd" >
<svg xmlns="http://www.w3.org/2000/svg">
<metadata>Generated by IcoMoon</metadata>
<defs>
<font id="PictoPro-Outline" horiz-adv-x="1024">
<font-face units-per-em="1024" ascent="960" descent="-64" />
<missing-glyph horiz-adv-x="1024" />
<glyph unicode="&#x20;" d="" horiz-adv-x="512" />
<glyph unicode="&#xe766;" d="M846.769 157.342l-361.157 361.157c-0.197 0.394-0.394 0.591-0.788 0.985h-0.197l-125.243 125.243c-1.772 1.772-3.742 3.545-5.908 4.923-8.665 6.498-19.495 9.846-31.114 9.846-20.086 0-42.142-10.437-60.455-28.751-11.815-11.835-20.48-25.206-25.009-38.991-6.498-19.102-4.332-38.006 5.711-51.988 0.197-0.414 0.394-0.788 0.788-0.985 1.182-1.989 2.757-3.742 4.529-5.514l487.385-487.385c7.503-7.286 17.526-11.422 27.963-11.422s20.48 4.135 27.766 11.422l55.729 55.729c15.34 15.557 15.34 40.369 0 55.729zM401.132 435.791l-88.615 88.812c11.422 4.726 22.646 12.406 32.886 22.646 10.437 10.437 18.117 21.662 22.843 33.083l87.631-87.631c0.985-3.919-3.348-19.279-19.889-36.017-16.542-16.561-31.902-20.106-34.658-20.894-0.197 0-0.197 0-0.197 0zM294.006 606.917c9.846 8.468 20.48 13.194 28.357 13.194 3.742 0 6.892-0.985 9.255-3.151 7.68-7.68 1.378-26.388-13.982-41.748-10.831-11.028-23.434-17.329-32.689-17.329-3.742 0-6.892 0.985-9.058 3.348-7.68 7.68-1.575 26.388 13.982 41.748 1.378 1.378 2.757 2.56 4.135 3.938zM463.951 428.898c10.24 10.417 18.117 21.268 23.434 32.098l331.618-331.422-55.729-55.729-331.422 331.422c10.831 5.317 21.858 13.194 32.098 23.631zM619.106 614.203l-10.417-56.714c-2.166-11.402 2.56-23.237 11.993-29.932 5.12-3.742 11.422-5.908 17.92-5.908 4.923 0 9.846 1.359 14.375 3.722l50.609 27.392 50.806-27.392c10.043-5.494 23.040-4.51 32.079 2.166 9.452 6.892 14.198 18.708 12.012 29.932l-10.437 56.734 41.767 39.778c8.468 8.074 11.618 20.283 8.054 31.311-3.742 11.047-13.391 19.102-25.029 20.677l-57.049 7.68-24.812 51.988c-4.923 10.437-15.754 17.132-27.372 17.132s-22.252-6.695-27.372-17.329l-24.812-51.791-57.108-7.7c-11.618-1.575-21.268-9.63-24.812-20.677-3.722-11.028-0.571-23.237 7.877-31.311l41.728-39.759zM677.612 677.415l25.994 54.154 25.974-54.154 59.49-8.074-43.54-41.374 10.85-58.86-52.775 28.554-52.795-28.751 10.831 59.077-43.5 41.374 59.471 8.054zM403.889 227.84l-55.926 7.483-24.418 51.003c-5.12 10.437-15.754 17.132-27.372 17.132-11.422 0-22.252-6.695-27.175-17.132l-24.418-51.003-56.123-7.483c-11.422-1.378-21.071-9.452-24.615-20.48-3.545-11.028-0.394-23.237 7.877-31.114l40.96-38.991-10.24-55.532c-2.166-11.422 2.56-23.040 11.815-29.952 5.317-3.722 11.422-5.908 17.92-5.908 4.923 0 9.846 1.378 14.375 3.722l49.625 26.782 50.018-26.978c10.24-5.317 23.040-4.135 31.902 2.363 9.452 6.912 13.982 18.511 11.815 29.735l-10.24 55.729 40.96 38.991c8.468 7.857 11.618 20.086 8.074 31.114-3.545 10.87-13.391 19.141-24.812 20.519zM337.132 151.040l10.634-57.698-51.594 27.963-51.397-27.963 10.634 57.698-42.535 40.369 58.092 7.7 25.206 52.953 25.403-52.953 58.092-7.7-42.535-40.369zM344.418 743.385l-6.105-32.689c-1.772-10.043 2.363-20.283 10.437-26.388 4.529-3.348 10.043-5.12 15.754-5.12 4.332 0 8.665 1.182 12.603 3.348l29.342 15.754 29.538-15.951c8.665-4.529 20.283-3.742 27.963 1.969 8.271 6.105 12.406 16.345 10.634 26.388l-6.105 32.689 24.222 23.040c7.286 7.089 10.043 17.723 6.892 27.372-3.151 9.649-11.618 16.935-21.662 18.137l-33.083 4.51-14.572 29.932c-4.332 9.255-13.588 15.163-23.828 15.163s-19.692-5.908-24.025-15.163l-14.375-29.932-33.083-4.529c-10.043-1.201-18.511-8.487-21.662-17.92-3.151-9.846-0.394-20.48 6.892-27.569l24.222-23.040zM394.437 780.209l12.012 25.009 12.012-25.009 27.569-3.742-20.086-19.298 4.923-27.392-24.418 13.41-24.615-13.41 5.12 27.392-20.283 19.298 27.766 3.742z" />
<glyph unicode="&#xe767;" d="M315.077 743.385h-78.769c-32.571 0-59.077-26.506-59.077-59.077v-472.615c0-32.571 26.506-59.077 59.077-59.077h78.769c32.571 0 59.077 26.506 59.077 59.077v472.615c0 32.571-26.506 59.077-59.077 59.077zM334.769 211.692c0-10.831-8.862-19.692-19.692-19.692h-78.769c-10.831 0-19.692 8.862-19.692 19.692v472.615c0 10.831 8.862 19.692 19.692 19.692h78.769c10.831 0 19.692-8.862 19.692-19.692v-472.615zM551.385 743.385h-78.769c-32.571 0-59.077-26.506-59.077-59.077v-472.615c0-32.571 26.506-59.077 59.077-59.077h78.769c32.571 0 59.077 26.506 59.077 59.077v472.615c0 32.571-26.506 59.077-59.077 59.077zM571.077 211.692c0-10.831-8.862-19.692-19.692-19.692h-78.769c-10.831 0-19.692 8.862-19.692 19.692v472.615c0 10.831 8.862 19.692 19.692 19.692h78.769c10.831 0 19.692-8.862 19.692-19.692v-472.615zM787.692 743.385h-78.769c-32.571 0-59.077-26.506-59.077-59.077v-472.615c0-32.571 26.506-59.077 59.077-59.077h78.769c32.571 0 59.077 26.506 59.077 59.077v472.615c0 32.571-26.506 59.077-59.077 59.077zM807.385 211.692c0-10.831-8.862-19.692-19.692-19.692h-78.769c-10.831 0-19.692 8.862-19.692 19.692v472.615c0 10.831 8.862 19.692 19.692 19.692h78.769c10.831 0 19.692-8.862 19.692-19.692v-472.615z" />
<glyph unicode="&#xe768;" d="M315.077 664.615h-78.769c-32.571 0-59.077-26.506-59.077-59.077v-78.769c0-32.571 26.506-59.077 59.077-59.077h78.769c32.571 0 59.077 26.506 59.077 59.077v78.769c0 32.571-26.506 59.077-59.077 59.077zM334.769 526.769c0-10.831-8.862-19.692-19.692-19.692h-78.769c-10.831 0-19.692 8.862-19.692 19.692v78.769c0 10.831 8.862 19.692 19.692 19.692h78.769c10.831 0 19.692-8.862 19.692-19.692v-78.769zM551.385 664.615h-78.769c-32.571 0-59.077-26.506-59.077-59.077v-78.769c0-32.571 26.506-59.077 59.077-59.077h78.769c32.571 0 59.077 26.506 59.077 59.077v78.769c0 32.571-26.506 59.077-59.077 59.077zM571.077 526.769c0-10.831-8.862-19.692-19.692-19.692h-78.769c-10.831 0-19.692 8.862-19.692 19.692v78.769c0 10.831 8.862 19.692 19.692 19.692h78.769c10.831 0 19.692-8.862 19.692-19.692v-78.769zM787.692 664.615h-78.769c-32.571 0-59.077-26.506-59.077-59.077v-78.769c0-32.571 26.506-59.077 59.077-59.077h78.769c32.571 0 59.077 26.506 59.077 59.077v78.769c0 32.571-26.506 59.077-59.077 59.077zM807.385 526.769c0-10.831-8.862-19.692-19.692-19.692h-78.769c-10.831 0-19.692 8.862-19.692 19.692v78.769c0 10.831 8.862 19.692 19.692 19.692h78.769c10.831 0 19.692-8.862 19.692-19.692v-78.769zM315.077 428.308h-78.769c-32.571 0-59.077-26.506-59.077-59.077v-78.769c0-32.571 26.506-59.077 59.077-59.077h78.769c32.571 0 59.077 26.506 59.077 59.077v78.769c0 32.571-26.506 59.077-59.077 59.077zM334.769 290.462c0-10.831-8.862-19.692-19.692-19.692h-78.769c-10.831 0-19.692 8.862-19.692 19.692v78.769c0 10.831 8.862 19.692 19.692 19.692h78.769c10.831 0 19.692-8.862 19.692-19.692v-78.769zM551.385 428.308h-78.769c-32.571 0-59.077-26.506-59.077-59.077v-78.769c0-32.571 26.506-59.077 59.077-59.077h78.769c32.571 0 59.077 26.506 59.077 59.077v78.769c0 32.571-26.506 59.077-59.077 59.077zM571.077 290.462c0-10.831-8.862-19.692-19.692-19.692h-78.769c-10.831 0-19.692 8.862-19.692 19.692v78.769c0 10.831 8.862 19.692 19.692 19.692h78.769c10.831 0 19.692-8.862 19.692-19.692v-78.769zM787.692 428.308h-78.769c-32.571 0-59.077-26.506-59.077-59.077v-78.769c0-32.571 26.506-59.077 59.077-59.077h78.769c32.571 0 59.077 26.506 59.077 59.077v78.769c0 32.571-26.506 59.077-59.077 59.077zM807.385 290.462c0-10.831-8.862-19.692-19.692-19.692h-78.769c-10.831 0-19.692 8.862-19.692 19.692v78.769c0 10.831 8.862 19.692 19.692 19.692h78.769c10.831 0 19.692-8.862 19.692-19.692v-78.769z" />
<glyph unicode="&#xe769;" d="M748.308 763.077h-472.615c-32.571 0-59.077-26.506-59.077-59.077v-59.077c0-32.571 26.506-59.077 59.077-59.077h472.615c32.571 0 59.077 26.506 59.077 59.077v59.077c0 32.571-26.506 59.077-59.077 59.077zM768 644.923c0-10.831-8.862-19.692-19.692-19.692h-472.615c-10.831 0-19.692 8.862-19.692 19.692v59.077c0 10.831 8.862 19.692 19.692 19.692h472.615c10.831 0 19.692-8.862 19.692-19.692v-59.077zM748.308 546.462h-472.615c-32.571 0-59.077-26.506-59.077-59.077v-59.077c0-32.571 26.506-59.077 59.077-59.077h472.615c32.571 0 59.077 26.506 59.077 59.077v59.077c0 32.571-26.506 59.077-59.077 59.077zM768 428.308c0-10.831-8.862-19.692-19.692-19.692h-472.615c-10.831 0-19.692 8.862-19.692 19.692v59.077c0 10.831 8.862 19.692 19.692 19.692h472.615c10.831 0 19.692-8.862 19.692-19.692v-59.077zM748.308 329.846h-472.615c-32.571 0-59.077-26.506-59.077-59.077v-59.077c0-32.571 26.506-59.077 59.077-59.077h472.615c32.571 0 59.077 26.506 59.077 59.077v59.077c0 32.571-26.506 59.077-59.077 59.077zM768 211.692c0-10.831-8.862-19.692-19.692-19.692h-472.615c-10.831 0-19.692 8.862-19.692 19.692v59.077c0 10.831 8.862 19.692 19.692 19.692h472.615c10.831 0 19.692-8.862 19.692-19.692v-59.077z" />
<glyph unicode="&#xe76a;" d="M728.615 743.385h-433.231c-32.571 0-59.077-26.506-59.077-59.077v-78.769c0-32.571 26.506-59.077 59.077-59.077h433.231c32.571 0 59.077 26.506 59.077 59.077v78.769c0 32.571-26.506 59.077-59.077 59.077zM748.308 605.538c0-10.831-8.862-19.692-19.692-19.692h-433.231c-10.831 0-19.692 8.862-19.692 19.692v78.769c0 10.831 8.862 19.692 19.692 19.692h433.231c10.831 0 19.692-8.862 19.692-19.692v-78.769zM334.769 507.077h-39.385c-32.571 0-59.077-26.506-59.077-59.077v-236.308c0-32.571 26.506-59.077 59.077-59.077h39.385c32.571 0 59.077 26.506 59.077 59.077v236.308c0 32.571-26.506 59.077-59.077 59.077zM354.462 211.692c0-10.831-8.862-19.692-19.692-19.692h-39.385c-10.831 0-19.692 8.862-19.692 19.692v236.308c0 10.831 8.862 19.692 19.692 19.692h39.385c10.831 0 19.692-8.862 19.692-19.692v-236.308zM531.692 507.077h-39.326c-32.571 0-59.077-26.506-59.077-59.077v-236.308c0-32.571 26.506-59.077 59.077-59.077h39.326c32.571 0 59.077 26.506 59.077 59.077v236.308c0 32.571-26.506 59.077-59.077 59.077zM551.385 211.692c0-10.831-8.862-19.692-19.692-19.692h-39.326c-10.831 0-19.692 8.862-19.692 19.692v236.308c0 10.831 8.862 19.692 19.692 19.692h39.326c10.831 0 19.692-8.862 19.692-19.692v-236.308zM728.615 507.077h-39.385c-32.571 0-59.077-26.506-59.077-59.077v-236.308c0-32.571 26.506-59.077 59.077-59.077h39.385c32.571 0 59.077 26.506 59.077 59.077v236.308c0 32.571-26.506 59.077-59.077 59.077zM748.308 211.692c0-10.831-8.862-19.692-19.692-19.692h-39.385c-10.831 0-19.692 8.862-19.692 19.692v236.308c0 10.831 8.862 19.692 19.692 19.692h39.385c10.831 0 19.692-8.862 19.692-19.692v-236.308z" />
<glyph unicode="&#xe76b;" d="M675.387 92.948l-119.355 29.854v239.006c105.275 11.087 162.914 88.93 162.914 222.247 0 69.179-33.004 234.949-34.383 241.959-1.831 9.196-9.905 15.833-19.298 15.833h-272.108c-9.393 0-17.467-6.636-19.298-15.833-1.418-7.010-34.422-172.78-34.422-241.959 0-139.225 62.917-217.895 177.231-223.271v-237.115l-122.919-30.74c-9.649-2.402-16.010-11.638-14.769-21.504s9.59-17.27 19.515-17.27h272.108c9.964 0 18.353 7.424 19.535 17.29 1.241 9.866-5.1 19.102-14.75 21.504zM378.801 584.054c0 53.386 22.272 174.927 30.582 218.407h239.655c8.271-43.5 30.543-165.002 30.543-218.407 0-124.081-49.191-184.399-150.39-184.399s-150.39 60.318-150.39 184.399z" />
<glyph unicode="&#xe76c;" d="M413.538 585.866l-15.774 11.796c-12.347 9.255-23.611 31.803-23.611 47.262v177.231c10.89 0 19.692 8.802 19.692 19.692s-8.802 19.692-19.692 19.692h-98.462c-10.89 0-19.692-8.802-19.692-19.692s8.802-19.692 19.692-19.692v-177.231c0-15.458-11.264-38.006-23.611-47.242l-15.813-11.835c-22.43-16.837-39.345-50.708-39.345-78.769v-433.231c0-32.571 26.506-59.077 59.077-59.077h137.846c32.571 0 59.077 26.506 59.077 59.077v433.231c0 28.062-16.916 61.932-39.385 78.789zM413.538 172.308h-118.154v196.923h118.154v-196.923zM413.538 73.846c0-10.87-8.842-19.692-19.692-19.692h-137.846c-10.89 0-19.692 8.822-19.692 19.692v433.231c0 15.458 11.264 38.006 23.611 47.242l15.774 11.835c22.469 16.837 39.385 50.708 39.385 78.769v177.231h19.692v-177.231c0-28.062 16.916-61.932 39.385-78.789l15.734-11.796c12.386-9.255 23.65-31.803 23.65-47.262v-98.462h-137.846c-10.89 0-19.692-8.802-19.692-19.692v-236.308c0-10.89 8.802-19.692 19.692-19.692h137.846v-59.077zM807.385 585.866l-15.774 11.796c-12.347 9.255-23.611 31.803-23.611 47.262v196.923c0 27.156-22.075 49.231-49.231 49.231s-49.231-22.075-49.231-49.231v-196.923c0-15.458-11.264-38.006-23.611-47.242l-15.813-11.835c-22.43-16.837-39.345-50.708-39.345-78.769v-433.231c0-32.571 26.506-59.077 59.077-59.077h137.846c32.571 0 59.077 26.506 59.077 59.077v433.231c0 28.062-16.916 61.932-39.385 78.789zM807.385 172.308h-118.154v196.923h118.154v-196.923zM807.385 73.846c0-10.87-8.842-19.692-19.692-19.692h-137.846c-10.89 0-19.692 8.822-19.692 19.692v433.231c0 15.458 11.264 38.006 23.611 47.242l15.774 11.835c22.469 16.837 39.385 50.708 39.385 78.769v196.923c0 5.415 4.431 9.846 9.846 9.846s9.846-4.431 9.846-9.846v-196.923c0-28.062 16.916-61.932 39.385-78.789l15.734-11.796c12.386-9.255 23.65-31.803 23.65-47.262v-98.462h-137.846c-10.89 0-19.692-8.802-19.692-19.692v-236.308c0-10.89 8.802-19.692 19.692-19.692h137.846v-59.077z" />
<glyph unicode="&#xe76d;" d="M433.231 605.558l-15.774 11.796c-12.347 9.255-23.611 31.803-23.611 47.262v177.231c10.89 0 19.692 8.802 19.692 19.692s-8.802 19.692-19.692 19.692h-98.462c-10.89 0-19.692-8.802-19.692-19.692s8.802-19.692 19.692-19.692v-177.231c0-15.458-11.264-38.006-23.611-47.242l-15.813-11.835c-22.43-16.837-39.345-50.708-39.345-78.769v-433.231c0-32.571 26.506-59.077 59.077-59.077h137.846c32.571 0 59.077 26.506 59.077 59.077v433.231c0 28.062-16.916 61.932-39.385 78.789zM433.231 192h-118.154v196.923h118.154v-196.923zM433.231 93.538c0-10.87-8.842-19.692-19.692-19.692h-137.846c-10.89 0-19.692 8.822-19.692 19.692v433.231c0 15.458 11.264 38.006 23.611 47.242l15.774 11.835c22.469 16.837 39.385 50.708 39.385 78.769v177.231h19.692v-177.231c0-28.062 16.916-61.932 39.385-78.789l15.734-11.796c12.386-9.255 23.65-31.803 23.65-47.262v-98.462h-137.846c-10.89 0-19.692-8.802-19.692-19.692v-236.308c0-10.89 8.802-19.692 19.692-19.692h137.846v-59.077zM792.458 73.255l-63.842 15.951v123.806c63.606 7.975 98.462 55.65 98.462 136.527 0 40.862-19.279 137.61-20.086 141.706-1.831 9.196-9.905 15.833-19.298 15.833h-157.538c-9.393 0-17.467-6.636-19.298-15.833-0.847-4.096-20.086-100.844-20.086-141.706 0-80.857 34.816-128.532 98.462-136.527v-123.806l-63.842-15.97c-9.649-2.402-16.010-11.638-14.769-21.504 1.182-9.846 9.57-17.27 19.535-17.27h157.538c9.925 0 18.314 7.424 19.535 17.29s-5.12 19.102-14.769 21.504zM630.154 349.538c0 27.825 10.811 89.127 16.266 118.154h125.007c5.415-29.026 16.266-90.329 16.266-118.154 0-88.241-44.958-98.462-78.769-98.462s-78.769 10.22-78.769 98.462z" />
<glyph unicode="&#xe76e;" d="M787.692 113.231h-551.385c-32.571 0-59.077 26.506-59.077 59.077v551.385c0 32.571 26.506 59.077 59.077 59.077h551.385c32.571 0 59.077-26.506 59.077-59.077v-551.385c0-32.571-26.506-59.077-59.077-59.077zM236.308 743.385c-10.85 0-19.692-8.822-19.692-19.692v-551.385c0-10.87 8.842-19.692 19.692-19.692h551.385c10.85 0 19.692 8.822 19.692 19.692v551.385c0 10.87-8.842 19.692-19.692 19.692h-551.385zM470.252 291.84c-11.205-11.225-17.329-25.994-17.329-41.748 0-15.97 6.124-30.74 17.329-41.945 11.225-11.047 25.994-17.132 41.748-17.132s30.523 6.105 41.748 17.132c11.205 11.225 17.329 25.994 17.329 41.945 0 15.754-6.124 30.523-17.329 41.748-22.252 22.252-61.243 22.252-83.495 0zM525.982 236.111c-7.483-7.483-20.48-7.483-27.963 0-7.68 7.68-7.68 20.086 0 27.766 3.742 3.722 8.665 5.908 13.982 5.908s10.24-2.166 13.982-5.908c7.68-7.68 7.68-20.086 0-27.766zM512 466.708c-57.876 0-112.246-22.646-153.186-63.606-23.060-23.040-23.060-60.436 0-83.476 23.040-23.060 60.436-23.060 83.476 0 38.4 38.38 101.022 38.38 139.422 0 11.422-11.638 26.604-17.349 41.748-17.349 14.966 0 30.11 5.711 41.728 17.349 23.060 23.040 23.060 60.436 0 83.476-40.94 40.96-95.311 63.606-153.186 63.606zM637.223 347.372c-3.722-3.742-8.842-5.711-13.765-5.711-5.12 0-10.24 1.989-13.982 5.711-53.74 53.76-141.214 53.76-194.954 0-7.68-7.68-20.106-7.68-27.746 0-7.7 7.877-7.7 20.283 0 27.963 68.923 69.14 181.543 69.14 250.466 0 7.68-7.68 7.68-20.086-0.020-27.963zM776.468 514.56c-70.498 70.695-164.431 109.686-264.468 109.686-50.018 0-98.462-9.649-143.34-28.357-44.918-18.491-85.878-45.883-121.305-81.329-23.040-23.040-23.040-60.455 0-83.495 23.237-23.237 60.652-23.237 83.692 0 48.226 48.246 112.601 75.028 180.953 75.028s132.726-26.782 180.953-75.047c11.618-11.618 26.782-17.329 41.767-17.329 15.163 0 30.306 5.711 41.728 17.329 23.237 23.060 23.237 60.475 0.020 83.515zM748.702 458.831c-7.68-7.68-20.086-7.68-27.766 0-55.926 55.729-129.969 86.646-208.916 86.646s-153.009-30.917-208.916-86.646c-3.742-3.722-8.881-5.711-13.804-5.711-5.12 0-10.24 1.989-13.962 5.711-7.7 7.7-7.7 20.106 0 27.766 63.193 63.409 147.279 98.265 236.702 98.265 44.702 0 88.044-8.665 128.197-25.403 39.975-16.542 76.997-41.157 108.505-72.862 7.641-7.68 7.641-20.086-0.039-27.766z" />
<glyph unicode="&#xe76f;" d="M512 368.148c75.993 0 137.846 61.854 137.846 137.846s-61.854 137.846-137.846 137.846-137.846-61.854-137.846-137.846 61.854-137.846 137.846-137.846zM512 604.455c54.292 0 98.462-44.17 98.462-98.462s-44.17-98.462-98.462-98.462-98.462 44.17-98.462 98.462 44.17 98.462 98.462 98.462zM512 427.225c43.441 0 78.769 35.328 78.769 78.769s-35.328 78.769-78.769 78.769-78.769-35.328-78.769-78.769 35.328-78.769 78.769-78.769zM512 545.378c21.721 0 39.385-17.664 39.385-39.385s-17.664-39.385-39.385-39.385-39.385 17.664-39.385 39.385 17.664 39.385 39.385 39.385zM668.514 296.428c-0.65 1.989-1.831 3.623-2.993 5.218 62.090 46.73 102.479 120.832 102.479 204.347 0 141.154-114.846 256-256 256s-256-114.846-256-256c0-83.574 40.448-157.696 102.577-204.446-1.241-1.634-2.402-3.328-3.092-5.376l-39.385-117.622c-2.028-6.006-1.024-12.623 2.698-17.743 3.682-5.159 9.649-8.192 15.97-8.192h354.462c6.321 0 12.268 3.033 15.99 8.192 3.702 5.14 4.706 11.737 2.698 17.723l-39.404 117.898zM295.385 505.994c0 119.434 97.182 216.615 216.615 216.615s216.615-97.182 216.615-216.615-97.182-216.615-216.615-216.615-216.615 97.182-216.615 216.615zM362.142 192l29.519 88.202c35.899-19.239 76.859-30.188 120.34-30.188 43.52 0 84.5 10.988 120.418 30.228l29.46-88.241h-299.737z" />
<glyph unicode="&#xe770;" d="M512.039 326.341c78.218 0 141.844 63.646 141.844 141.883 0 78.218-63.626 141.844-141.844 141.844-78.238 0-141.883-63.626-141.883-141.844 0-78.218 63.646-141.883 141.883-141.883zM512.039 570.683c56.497 0 102.459-45.962 102.459-102.459 0-56.517-45.962-102.498-102.459-102.498-56.517 0-102.498 45.982-102.498 102.498 0 56.497 45.982 102.459 102.498 102.459zM537.147 409.068c3.879-4.51 9.393-6.814 14.887-6.814 4.569 0 9.157 1.575 12.879 4.805 8.231 7.109 9.118 19.535 2.009 27.766l-35.23 40.743v51.2c0 10.89-8.822 19.692-19.692 19.692s-19.692-8.802-19.692-19.692v-58.545c0-4.726 1.694-9.314 4.805-12.879l40.034-46.277zM404.145 627.614c2.934-1.595 6.164-2.383 9.393-2.383 3.742 0 7.463 1.063 10.713 3.17 52.5 34.048 123.018 34.087 175.478 0.039 6.085-3.938 13.785-4.234 20.126-0.788s10.299 10.102 10.299 17.31v182.193c0 10.89-8.802 19.692-19.692 19.692h-196.923c-10.87 0-19.692-8.802-19.692-19.692v-182.233c0-7.207 3.958-13.863 10.299-17.31zM433.231 807.463h157.538v-129.753c-49.585 21.248-107.914 21.248-157.538-0.039v129.792zM619.874 307.732c-6.341 3.446-14.060 3.151-20.126-0.788-52.46-34.048-122.978-34.048-175.478 0.039-6.046 3.938-13.785 4.234-20.106 0.788-6.361-3.446-10.319-10.102-10.319-17.31v-196.923c0-10.89 8.822-19.692 19.692-19.692h196.923c10.89 0 19.692 8.802 19.692 19.692v196.884c0 7.207-3.938 13.863-10.279 17.31zM590.769 113.231h-157.538v144.482c49.625-21.287 107.953-21.287 157.538-0.039v-144.443z" />
<glyph unicode="&#xe771;" d="M820.894 285.42l-254.838 424.763c-12.623 20.992-32.315 33.044-54.036 33.044s-41.433-12.032-54.036-33.044l-254.838-424.763c-12.82-21.366-14.021-44.505-3.249-63.527 10.713-18.983 31.173-29.893 56.103-29.893h512c24.93 0 45.391 10.91 56.143 29.913 10.752 19.003 9.57 42.142-3.249 63.508zM768 231.385h-512c-21.662 0-30.267 15.183-19.121 33.772l254.838 424.763c5.573 9.295 12.918 13.922 20.263 13.922s14.69-4.628 20.263-13.922l254.838-424.763c11.185-18.59 2.58-33.772-19.082-33.772zM531.239 384.65l39.385 177.231c0.295 1.398 0.453 2.836 0.453 4.273 0 32.571-26.506 59.077-59.077 59.077s-59.077-26.506-59.077-59.077c0-1.438 0.158-2.875 0.453-4.273l39.385-177.231c2.028-9.019 10.004-15.419 19.239-15.419s17.211 6.4 19.239 15.419zM492.386 567.946c0.926 10.023 9.354 17.9 19.614 17.9s18.688-7.877 19.614-17.9l-19.614-88.261-19.614 88.261zM452.923 310.154c0-32.571 26.506-59.077 59.077-59.077s59.077 26.506 59.077 59.077-26.506 59.077-59.077 59.077-59.077-26.506-59.077-59.077zM512 329.846c10.87 0 19.692-8.822 19.692-19.692s-8.822-19.692-19.692-19.692-19.692 8.822-19.692 19.692 8.822 19.692 19.692 19.692z" />
<glyph unicode="&#xe772;" d="M216.615 329.846h157.538v118.154h-157.538v-118.154zM256 408.615h78.769v-39.385h-78.769v39.385zM970.693 484.017l-432.069 228.194c-15.419 8.153-37.809 8.153-53.228 0l-432.089-228.194 18.412-34.836 66.127 34.934v-272.423c0-10.831 8.862-19.692 19.692-19.692h708.923c10.831 0 19.692 8.862 19.692 19.692v272.423l66.127-34.914 18.412 34.816zM728.615 310.154h-275.692v98.462h275.692v-98.462zM846.769 231.385h-78.769v216.615h-354.462v-216.615h-236.308v273.546l326.538 172.485c3.84 2.009 12.623 2.009 16.463 0l326.538-172.485v-273.546z" />
<glyph unicode="&#xe773;" d="M787.692 310.154c-10.89 0-19.692-8.802-19.692-19.692v-59.077c0-10.87-8.842-19.692-19.692-19.692h-531.692c-10.85 0-19.692 8.822-19.692 19.692v377.797c6.183-2.225 12.741-3.643 19.692-3.643h531.692c10.85 0 19.692-8.822 19.692-19.692v-19.692c0-10.89 8.802-19.692 19.692-19.692s19.692 8.802 19.692 19.692v19.692c0 32.571-26.506 59.077-59.077 59.077h-19.692v39.385c0 32.571-26.506 59.077-59.077 59.077h-452.923c-32.571 0-59.077-26.506-59.077-59.077v-452.923c0-32.571 26.506-59.077 59.077-59.077h531.692c32.571 0 59.077 26.506 59.077 59.077v59.077c0 10.89-8.802 19.692-19.692 19.692zM196.923 684.308c0 10.87 8.842 19.692 19.692 19.692h452.923c10.85 0 19.692-8.822 19.692-19.692v-39.385h-472.615c-10.85 0-19.692 8.822-19.692 19.692v19.692zM807.385 526.769h-157.538c-32.571 0-59.077-26.506-59.077-59.077v-78.769c0-32.571 26.506-59.077 59.077-59.077h157.538c32.571 0 59.077 26.506 59.077 59.077v78.769c0 32.571-26.506 59.077-59.077 59.077zM827.077 388.923c0-10.87-8.842-19.692-19.692-19.692h-157.538c-10.85 0-19.692 8.822-19.692 19.692v78.769c0 10.87 8.842 19.692 19.692 19.692h157.538c10.85 0 19.692-8.822 19.692-19.692v-78.769zM708.923 428.308c0-10.876-8.817-19.692-19.692-19.692s-19.692 8.817-19.692 19.692c0 10.876 8.817 19.692 19.692 19.692 10.876 0 19.692-8.817 19.692-19.692z" />
<glyph unicode="&#xe774;" d="M669.538 625.231c-32.689 0-59.077-26.388-59.077-59.077v-236.308c0-32.689 26.388-59.077 59.077-59.077s59.077 26.388 59.077 59.077v236.308c0 32.689-26.388 59.077-59.077 59.077zM689.231 329.846c0-10.831-8.862-19.692-19.692-19.692s-19.692 8.862-19.692 19.692v236.308c0 10.831 8.862 19.692 19.692 19.692s19.692-8.862 19.692-19.692v-236.308zM551.385 369.231h-262.38l269.115 97.871c10.22 3.702 15.498 15.006 11.776 25.226-3.702 10.22-14.966 15.458-25.226 11.776l-374.154-136.054c-8.98-3.249-14.336-12.505-12.662-21.918 1.654-9.413 9.826-16.286 19.377-16.286h374.154c10.89 0 19.692 8.802 19.692 19.692s-8.802 19.692-19.692 19.692zM838.361 601.974c-5.258 3.702-11.973 4.569-18.018 2.363l-59.077-21.484c-10.22-3.702-15.498-15.006-11.776-25.226 3.702-10.24 14.966-15.498 25.226-11.776l32.67 11.874v-188.495h-39.385c-10.89 0-19.692-8.802-19.692-19.692s8.802-19.692 19.692-19.692h59.077c10.89 0 19.692 8.802 19.692 19.692v236.308c0 6.42-3.131 12.446-8.409 16.128z" />
<glyph unicode="&#xe775;" d="M669.538 664.615h-78.769c-10.89 0-19.692-8.802-19.692-19.692v-78.769c0-10.89 8.802-19.692 19.692-19.692h19.692v-59.077c0-15.104-11.441-36.47-24.005-44.839l-54.764-36.529v297.984h39.385c7.089 0 13.627 3.801 17.132 9.984s3.407 13.765-0.256 19.85l-59.077 98.462c-7.109 11.855-26.663 11.855-33.772 0l-59.077-98.462c-3.663-6.085-3.742-13.647-0.256-19.85 3.525-6.183 10.063-9.984 17.152-9.984h39.385v-396.446l-54.764 36.51c-12.564 8.389-24.005 29.755-24.005 44.859v78.769c0 1.221-0.473 2.265-0.689 3.426 23.237 7.956 40.074 29.775 40.074 55.65 0 32.571-26.506 59.077-59.077 59.077s-59.077-26.506-59.077-59.077c0-25.876 16.837-47.695 40.074-55.65-0.217-1.162-0.689-2.206-0.689-3.426v-78.769c0-28.455 17.861-61.834 41.531-77.607l76.623-51.082v-48.542c0-0.926 0.414-1.733 0.532-2.639-34.146-8.606-59.609-39.326-59.609-76.13 0-43.441 35.328-78.769 78.769-78.769s78.769 35.328 78.769 78.769c0 36.805-25.462 67.525-59.609 76.13 0.118 0.906 0.532 1.713 0.532 2.639v147.003l76.623 51.082c23.67 15.774 41.531 49.152 41.531 77.607v59.077h19.692c10.89 0 19.692 8.802 19.692 19.692v78.769c0 10.89-8.802 19.692-19.692 19.692zM487.719 743.385l24.281 40.507 24.281-40.507h-48.561zM393.846 546.462c10.87 0 19.692-8.822 19.692-19.692s-8.822-19.692-19.692-19.692-19.692 8.822-19.692 19.692 8.822 19.692 19.692 19.692zM551.385 132.923c0-21.721-17.664-39.385-39.385-39.385s-39.385 17.664-39.385 39.385 17.664 39.385 39.385 39.385 39.385-17.664 39.385-39.385zM649.846 585.846h-39.385v39.385h39.385v-39.385z" />
<glyph unicode="&#xe776;" d="M369.999 716.091c-7.463 9.57-23.611 9.57-31.074 0l-137.846-177.231c-4.608-5.947-5.455-14.001-2.146-20.756s10.161-11.028 17.684-11.028h59.077v-275.692c0-10.89 8.802-19.692 19.692-19.692h118.154c10.89 0 19.692 8.802 19.692 19.692v275.692h59.077c7.522 0 14.375 4.293 17.684 11.047s2.462 14.809-2.146 20.756l-137.846 177.211zM413.538 546.462c-10.89 0-19.692-8.802-19.692-19.692v-275.692h-78.769v275.692c0 10.89-8.802 19.692-19.692 19.692h-38.498l97.575 125.46 97.575-125.46h-38.498zM825.068 397.568c-3.308 6.754-10.161 11.047-17.684 11.047h-59.077v275.692c0 10.89-8.802 19.692-19.692 19.692h-118.154c-10.89 0-19.692-8.802-19.692-19.692v-275.692h-59.077c-7.522 0-14.375-4.293-17.684-11.047s-2.462-14.809 2.146-20.756l137.846-177.231c3.722-4.766 9.452-7.582 15.537-7.582s11.815 2.816 15.537 7.601l137.846 177.231c4.608 5.927 5.455 14.001 2.146 20.736zM669.538 243.771l-97.575 125.46h38.498c10.89 0 19.692 8.802 19.692 19.692v275.692h78.769v-275.692c0-10.89 8.802-19.692 19.692-19.692h38.498l-97.575-125.46z" />
<glyph unicode="&#xe777;" d="M502.154 405.465l121.502-121.502c30.74-30.72 80.738-30.72 111.458 0 30.72 30.74 30.72 80.738 0 111.458l-177.231 177.231c-30.74 30.72-80.738 30.72-111.458 0l-177.231-177.231c-15.36-15.36-23.040-35.663-23.040-55.729s7.68-40.369 23.040-55.729c30.74-30.72 80.738-30.72 111.458 0l121.502 121.502zM297.157 311.926c-7.68 7.7-11.618 17.723-11.618 27.766s3.938 20.086 11.618 27.766l177.231 177.231c15.36 15.557 40.172 15.557 55.532 0l177.231-177.231c15.557-15.36 15.557-40.172 0-55.532-15.36-15.557-40.172-15.557-55.532 0l-149.465 149.268-149.465-149.268c-15.36-15.557-40.172-15.557-55.532 0z" />
<glyph unicode="&#xe778;" d="M728.615 526.769h-295.385v117.071c0 10.85 8.842 20.775 19.692 20.775h118.154c10.85 0 19.692-9.925 19.692-20.775v-19.692c0-32.571 26.506-59.077 59.077-59.077s59.077 26.506 59.077 59.077v19.692c0 76.012-61.854 138.929-137.846 138.929h-118.154c-75.993 0-137.846-62.917-137.846-138.929v-117.071h-19.692c-32.571 0-59.077-26.506-59.077-59.077v-275.692c0-32.571 26.506-59.077 59.077-59.077h433.231c32.571 0 59.077 26.506 59.077 59.077v275.692c0 32.571-26.506 59.077-59.077 59.077zM354.462 643.84c0 54.272 44.17 99.545 98.462 99.545h118.154c54.292 0 98.462-45.273 98.462-99.545v-19.692c0-10.89-8.802-19.692-19.692-19.692s-19.692 8.802-19.692 19.692v19.692c0 32.591-26.506 60.16-59.077 60.16h-118.154c-32.571 0-59.077-27.569-59.077-60.16v-117.071h-39.385v117.071zM748.308 192c0-10.87-8.822-19.692-19.692-19.692h-433.231c-10.87 0-19.692 8.822-19.692 19.692v275.692c0 10.87 8.822 19.692 19.692 19.692h433.231c10.87 0 19.692-8.822 19.692-19.692v-275.692zM512 446.917c-43.441 0-78.769-35.328-78.769-78.769 0-19.042 7.070-37.474 19.692-51.81v-84.953c0-10.89 8.802-19.692 19.692-19.692h78.769c10.89 0 19.692 8.802 19.692 19.692v84.953c12.623 14.336 19.692 32.768 19.692 51.81 0 43.441-35.328 78.769-78.769 78.769zM538.21 339.023c-4.155-3.742-6.518-9.058-6.518-14.631v-73.314h-39.385v73.314c0 5.573-2.363 10.91-6.518 14.631-8.507 7.641-13.174 17.999-13.174 29.125 0 21.721 17.664 39.385 39.385 39.385s39.385-17.664 39.385-39.385c0-11.126-4.667-21.484-13.174-29.125z" />
<glyph unicode="&#xe779;" d="M493.607 625.191c-0.866 0.039-1.753 0.039-2.619 0-3.131-0.217-313.758-24.064-313.758-295.345 0-2.56 0.512-5.12 1.516-7.522 2.009-4.825 5.829-8.645 10.654-10.654 4.805-1.989 10.24-1.989 15.045 0 2.422 1.004 4.588 2.442 6.42 4.273l31.212 31.212c7.68 7.66 20.165 7.66 27.845 0l23.079-23.079c23.040-23.040 60.495-23.040 83.535 0l23.079 23.079c7.68 7.66 20.165 7.66 27.845 0l23.079-23.079c23.040-23.040 60.495-23.040 83.535 0l23.079 23.079c7.68 7.66 20.165 7.66 27.845 0l23.079-23.079c11.52-11.52 26.663-17.27 41.767-17.27s30.247 5.75 41.767 17.27l23.079 23.079c7.68 7.66 20.165 7.66 27.845 0l31.232-31.212c1.812-1.831 3.978-3.269 6.4-4.273 4.805-1.989 10.24-1.989 15.045 0 4.825 2.009 8.645 5.829 10.654 10.654 1.004 2.402 1.516 4.962 1.516 7.522 0 271.281-310.626 295.129-313.777 295.345zM686.848 375.001l-23.079-23.079c-7.68-7.66-20.165-7.66-27.845 0l-23.079 23.079c-23.040 23.040-60.495 23.040-83.535 0l-23.079-23.079c-7.68-7.66-20.165-7.66-27.845 0l-23.079 23.079c-23.040 23.040-60.495 23.040-83.535 0l-23.079-23.079c-7.68-7.66-20.165-7.66-27.845 0l-23.079 23.079c-20.815 20.815-53.287 22.626-76.367 5.849 34.422 181.268 249.698 203.244 270.927 204.938 21.327-1.674 236.603-23.257 270.927-204.958-23.099 16.798-55.591 14.986-76.406-5.829zM610.462 113.231c-10.89 0-19.692-8.802-19.692-19.692 0-21.721-17.644-39.385-39.385-39.385-21.721 0-39.385 17.664-39.385 39.385v157.538c0 10.89-8.822 19.692-19.692 19.692s-19.692-8.802-19.692-19.692v-157.538c0-43.441 35.328-78.769 78.769-78.769 43.422 0 78.769 35.328 78.769 78.769 0 10.89-8.802 19.692-19.692 19.692zM261.75 748.071c15.774 0 30.622 6.164 41.787 17.31 17.802 17.802 29.204 71.621 33.3 93.932 1.162 6.361-0.866 12.879-5.455 17.467-4.569 4.569-11.126 6.676-17.467 5.435-22.311-4.076-76.15-15.478-93.932-33.28-23.040-23.040-23.040-60.495 0-83.535 11.166-11.166 25.994-17.329 41.767-17.329zM247.828 821.071c4.372 4.135 22.292 10.457 43.815 15.97-5.474-21.543-11.815-39.444-15.951-43.815-7.424-7.404-20.401-7.483-27.845 0-7.68 7.68-7.68 20.185-0.020 27.845zM419.289 669.302c15.774 0 30.622 6.164 41.787 17.31 17.802 17.802 29.204 71.621 33.3 93.932 1.162 6.361-0.866 12.879-5.455 17.467-4.569 4.569-11.106 6.695-17.467 5.435-22.311-4.076-76.15-15.478-93.932-33.28-23.040-23.040-23.040-60.495 0-83.535 11.166-11.166 25.994-17.329 41.767-17.329zM405.366 742.302c4.372 4.135 22.292 10.457 43.815 15.97-5.494-21.543-11.835-39.444-15.97-43.815-7.424-7.404-20.401-7.483-27.845 0-7.66 7.68-7.66 20.185 0 27.845zM616.231 748.071c15.774 0 30.622 6.164 41.767 17.31 17.802 17.802 29.204 71.621 33.3 93.932 1.162 6.361-0.886 12.879-5.455 17.467-4.549 4.569-11.087 6.676-17.467 5.435-22.311-4.076-76.15-15.478-93.932-33.28-23.040-23.040-23.040-60.495 0-83.535 11.166-11.166 25.994-17.329 41.787-17.329zM602.309 821.071c4.372 4.135 22.272 10.457 43.815 15.97-5.514-21.543-11.835-39.444-15.97-43.815-7.424-7.404-20.382-7.483-27.845 0-7.68 7.68-7.68 20.185 0 27.845zM843.382 797.991c-4.569 4.569-11.106 6.695-17.467 5.435-22.311-4.076-76.15-15.478-93.932-33.28-23.040-23.040-23.040-60.495 0-83.535 11.146-11.146 25.974-17.31 41.767-17.31 15.774 0 30.622 6.164 41.767 17.31 17.802 17.802 29.204 71.621 33.3 93.932 1.182 6.361-0.847 12.879-5.435 17.447zM787.692 714.457c-7.424-7.404-20.382-7.483-27.845 0-7.68 7.68-7.68 20.165 0 27.845 4.372 4.135 22.272 10.457 43.815 15.97-5.514-21.543-11.835-39.444-15.97-43.815z" />
<glyph unicode="&#xe77a;" d="M825.561 460.17c1.004 2.402 1.516 4.962 1.516 7.522 0 271.281-310.626 295.129-313.777 295.345-0.866 0.039-1.753 0.039-2.619 0-3.131-0.217-313.758-24.064-313.758-295.345 0-2.56 0.512-5.12 1.516-7.522 2.009-4.825 5.829-8.645 10.654-10.654 4.805-1.989 10.24-1.989 15.045 0 2.422 1.004 4.588 2.442 6.42 4.273l31.212 31.212c7.68 7.66 20.165 7.66 27.845 0l23.079-23.079c23.040-23.040 60.495-23.040 83.535 0l23.079 23.079c7.68 7.66 20.165 7.66 27.845 0l23.079-23.079c23.040-23.040 60.495-23.040 83.535 0l23.079 23.079c7.68 7.66 20.165 7.66 27.845 0l23.079-23.079c11.52-11.52 26.663-17.27 41.767-17.27s30.247 5.75 41.767 17.27l23.079 23.079c7.68 7.66 20.165 7.66 27.845 0l31.232-31.212c1.812-1.831 3.978-3.269 6.4-4.273 4.805-1.989 10.24-1.989 15.045 0 4.825 2.009 8.645 5.829 10.654 10.654zM706.54 512.847l-23.079-23.079c-7.68-7.66-20.165-7.66-27.845 0l-23.079 23.079c-23.040 23.040-60.495 23.040-83.535 0l-23.079-23.079c-7.68-7.66-20.165-7.66-27.845 0l-23.079 23.079c-23.040 23.040-60.495 23.040-83.535 0l-23.079-23.079c-7.68-7.66-20.165-7.66-27.845 0l-23.079 23.079c-20.815 20.815-53.287 22.626-76.367 5.849 34.422 181.268 249.698 203.244 270.927 204.938 21.327-1.674 236.603-23.257 270.927-204.958-23.099 16.798-55.591 14.986-76.406-5.829zM630.154 251.077c-10.89 0-19.692-8.802-19.692-19.692 0-21.721-17.644-39.385-39.385-39.385s-39.385 17.664-39.385 39.385v157.538c0 10.89-8.822 19.692-19.692 19.692s-19.692-8.802-19.692-19.692v-157.538c0-43.441 35.328-78.769 78.769-78.769 43.422 0 78.769 35.328 78.769 78.769 0 10.89-8.802 19.692-19.692 19.692z" />
<glyph unicode="&#xe77b;" d="M512 408.458v19.85h113.487c33.95 0 63.744 32.217 63.744 68.923s-29.794 68.923-63.744 68.923h-113.487v43.461c0 33.969-32.217 63.744-68.923 63.744s-68.923-29.775-68.923-63.744v-203.599c0-62.484 52.953-154.939 166.597-154.939h84.736c33.95 0 63.744 32.217 63.744 68.923s-29.794 68.923-63.744 68.923h-84.736c-21.878 0-25.442 5.573-27.648 9.039-1.595 2.363-1.556 4.431-1.28 7.266 0.059 0.591 0.177 2.639 0.177 3.23zM480.768 375.454c7.070-11.106 20.972-25.915 59.983-25.915h84.736c12.071 0 24.359-14.907 24.359-29.538s-12.288-29.538-24.359-29.538h-84.736c-95.193 0-127.212 79.36-127.212 116.657v202.496c0 12.071 14.907 24.359 29.538 24.359s29.538-12.288 29.538-24.359v-63.153c0-10.89 8.822-19.692 19.692-19.692h133.179c12.071 0 24.359-14.907 24.359-29.538s-12.288-29.538-24.359-29.538h-133.179c-10.87 0-19.692-8.802-19.692-19.692v-39.207c0-4.628-1.694-18.668 8.153-33.339zM768 802.462h-495.577c-54.292 0-98.462-44.17-98.462-98.462v-490.693c0-54.292 44.17-98.462 98.462-98.462h495.577c54.292 0 98.462 44.17 98.462 98.462v490.693c0 54.292-44.17 98.462-98.462 98.462zM827.077 213.307c0-32.571-26.506-59.077-59.077-59.077h-495.577c-32.571 0-59.077 26.506-59.077 59.077v490.693c0 32.571 26.506 59.077 59.077 59.077h495.577c32.571 0 59.077-26.506 59.077-59.077v-490.693z" />
<glyph unicode="&#xe77c;" d="M698.289 672.492c-25.974 19.692-63.015 14.356-82.708-11.835-19.495-25.974-14.178-63.015 11.815-82.708 43.54-32.473 68.352-82.314 68.352-136.468 0-94.129-76.406-170.732-170.535-170.732-94.149 0.020-170.752 76.623-170.752 170.752 0 54.154 24.812 103.975 68.332 136.468 25.994 19.692 31.311 56.734 11.815 82.708-19.692 26.191-56.714 31.527-82.708 11.835-73.452-55.158-115.594-139.244-115.594-231.010 0-159.311 129.575-288.886 288.886-288.886 159.114 0 288.689 129.575 288.689 288.886 0 90.388-43.106 176.837-115.594 230.991zM525.194 192c-137.649 0-249.502 111.852-249.502 249.502 0 79.183 36.431 151.828 99.84 199.483 8.665 6.498 20.874 4.726 27.569-3.938 6.498-8.645 4.726-21.051-3.938-27.55-53.366-39.995-84.086-101.435-84.086-167.995 0-115.791 94.326-210.117 210.117-210.117s209.92 94.326 209.92 210.117c0 66.757-30.543 128-84.086 167.975-8.665 6.695-10.457 18.905-3.958 27.55 6.715 8.665 18.924 10.437 27.569 3.938 63.606-47.458 99.84-120.3 99.84-199.483 0.020-137.63-111.833-249.482-249.285-249.482zM525.194 428.308c32.492 0 59.077 26.388 59.077 59.077v216.615c0 32.689-26.585 59.077-59.077 59.077-32.689 0-59.077-26.388-59.077-59.077v-216.615c0-32.689 26.388-59.077 59.077-59.077zM505.502 704c0 10.831 8.665 19.692 19.692 19.692 10.85 0 19.692-8.862 19.692-19.692v-216.615c0-10.831-8.842-19.692-19.692-19.692-11.028 0-19.692 8.862-19.692 19.692v216.615z" />
<glyph unicode="&#xe77d;" d="M315.077 329.846c32.63 0 59.077-26.447 59.077-59.077s-26.447-59.077-59.077-59.077-59.077 26.447-59.077 59.077 26.447 59.077 59.077 59.077M315.077 369.231c-54.292 0-98.462-44.17-98.462-98.462s44.17-98.462 98.462-98.462 98.462 44.17 98.462 98.462-44.17 98.462-98.462 98.462v0zM728.615 329.846c32.63 0 59.077-26.447 59.077-59.077s-26.447-59.077-59.077-59.077-59.077 26.447-59.077 59.077 26.447 59.077 59.077 59.077M728.615 369.231c-54.292 0-98.462-44.17-98.462-98.462s44.17-98.462 98.462-98.462 98.462 44.17 98.462 98.462-44.17 98.462-98.462 98.462v0zM866.462 251.077h-59.077v39.385h59.077c21.721 0 39.385 17.664 39.385 39.385v118.154c0 14.1-4.588 33.497-10.929 46.139l-61.046 122.309c-8.231 16.502-27.668 28.475-46.178 28.475h-118.154v19.692c0 21.721-17.664 39.385-39.385 39.385h-472.615c-21.721 0-39.385-17.664-39.385-39.385v-334.769c0-21.721 17.664-39.385 39.385-39.385h78.769v-39.385h-78.769c-43.441 0-78.769 35.328-78.769 78.769v334.769c0 43.441 35.328 78.769 78.769 78.769h472.615c36.628 0 67.525-25.127 76.268-59.077h81.27c33.674 0 66.383-20.204 81.428-50.274l61.046-122.309c8.999-17.999 15.065-43.618 15.065-63.724v-118.154c0-43.441-35.328-78.769-78.769-78.769zM393.846 290.462h256v-39.385h-256v39.385zM847.616 448h-178.078v177.231h117.76c18.59 0 38.203-12.839 45.627-29.873l44.524-101.73c4.785-10.969 4.116-22.41-1.792-31.449-5.888-8.999-16.128-14.178-28.042-14.178zM708.923 487.385h128.295l-40.369 92.219c-1.221 2.757-6.538 6.242-9.551 6.242h-78.375v-98.462z" />
<glyph unicode="&#xe77e;" d="M521.846 841.846c-157.538 0-285.538-128-285.538-285.538 0-137.255 97.28-252.062 226.462-279.434v-143.951c0-32.689 26.388-59.077 59.077-59.077s59.077 26.388 59.077 59.077v143.951c129.182 27.372 226.462 142.178 226.462 279.434 0 157.538-128 285.538-285.538 285.538zM541.538 518.498v-385.575c0-10.831-8.862-19.692-19.692-19.692s-19.692 8.862-19.692 19.692v228.037l-102.597 102.597c-7.68 7.68-7.68 20.283 0 27.963s20.283 7.68 27.963 0l74.634-74.634v228.037c0 10.831 8.862 19.692 19.692 19.692s19.692-8.862 19.692-19.692v-70.498l45.095 45.095c7.68 7.68 20.283 7.68 27.963 0s7.68-20.283 0-27.963l-73.058-73.058zM580.923 317.243v185.108l61.44 61.44c23.040 23.040 23.040 60.455 0 83.495-17.132 17.132-42.338 21.465-63.606 13.194-6.695 25.206-29.538 43.52-56.911 43.52-32.689 0-59.077-26.388-59.077-59.077v-133.356l-7.483 7.719c-23.040 23.040-60.455 23.040-83.495 0s-23.040-60.455 0-83.495l90.978-90.978v-27.55c-107.323 26.565-187.077 123.648-187.077 239.045 0 135.877 110.277 246.154 246.154 246.154s246.154-110.277 246.154-246.154c0-115.397-79.754-212.48-187.077-239.065z" />
<glyph unicode="&#xe77f;" d="M776.172 298.535l-109.883 110.080h39.188c15.951 0 30.326 9.649 36.431 24.222 6.124 14.769 2.56 31.685-8.645 42.929l-93.952 93.932h7.089c15.951 0 30.326 9.649 36.431 24.418 6.124 14.572 2.56 31.508-8.645 42.929l-134.302 134.124c-7.719 7.66-17.743 11.599-27.786 11.599s-20.086-3.938-27.766-11.618l-134.302-134.124c-11.205-11.422-14.769-28.337-8.645-42.929 6.105-14.769 20.48-24.418 36.431-24.418h7.089l-93.952-93.932c-11.205-11.225-14.769-28.16-8.645-42.929 6.105-14.572 20.48-24.222 36.431-24.222h39.188l-109.883-110.080c-11.422-11.225-14.769-28.16-8.645-42.929 6.105-14.572 20.48-24.222 36.431-24.222h177.231v-39.385c0-32.689 26.388-59.077 59.077-59.077s59.077 26.388 59.077 59.077v39.385h177.231c15.951 0 30.326 9.649 36.431 24.222 6.065 14.789 2.718 31.724-8.704 42.949zM571.175 270.769h-39.385v-78.769c0-10.831-8.862-19.692-19.692-19.692s-19.692 8.862-19.692 19.692v78.769h-216.615l177.231 177.231h-134.302l161.103 161.083h-102.026l134.302 134.302 134.302-134.302h-102.026l161.103-161.083h-134.302l177.231-177.231h-177.231z" />
<glyph unicode="&#xe780;" d="M521.846 832c-217.167 0-393.846-176.679-393.846-393.846s176.679-393.846 393.846-393.846c217.147 0 393.846 176.679 393.846 393.846s-176.699 393.846-393.846 393.846zM521.846 83.692c-195.446 0-354.462 159.015-354.462 354.462s159.015 354.462 354.462 354.462c195.466 0 354.462-159.015 354.462-354.462s-158.996-354.462-354.462-354.462zM679.385 615.385c-10.89 0-19.692-8.802-19.692-19.692v-157.538h-118.154v157.538c0 10.89-8.802 19.692-19.692 19.692-10.87 0-19.692-8.802-19.692-19.692v-157.538h-118.154v157.538c0 10.89-8.822 19.692-19.692 19.692s-19.692-8.802-19.692-19.692v-354.462c0-10.89 8.822-19.692 19.692-19.692s19.692 8.802 19.692 19.692v157.538h118.154v-157.538c0-10.89 8.822-19.692 19.692-19.692 10.89 0 19.692 8.802 19.692 19.692v157.538h157.538v196.923c0 10.89-8.802 19.692-19.692 19.692z" />
<glyph unicode="&#xe781;" d="M315.077 230.302c-43.422 0-78.769 35.328-78.769 78.769s35.348 78.769 78.769 78.769 78.769-35.328 78.769-78.769-35.348-78.769-78.769-78.769zM315.077 348.455c-21.74 0-39.385-17.664-39.385-39.385s17.644-39.385 39.385-39.385 39.385 17.664 39.385 39.385-17.644 39.385-39.385 39.385zM708.923 230.302c-43.422 0-78.769 35.328-78.769 78.769s35.348 78.769 78.769 78.769 78.769-35.328 78.769-78.769-35.348-78.769-78.769-78.769zM708.923 348.455c-21.74 0-39.385-17.664-39.385-39.385s17.644-39.385 39.385-39.385 39.385 17.664 39.385 39.385-17.644 39.385-39.385 39.385zM728.615 152.615h-433.231c-75.993 0-137.846 61.854-137.846 137.846v433.231c0 75.993 61.854 137.846 137.846 137.846h433.231c75.993 0 137.846-61.854 137.846-137.846v-433.231c0-75.993-61.854-137.846-137.846-137.846zM295.385 822.154c-54.292 0-98.462-44.17-98.462-98.462v-433.231c0-54.292 44.17-98.462 98.462-98.462h433.231c54.292 0 98.462 44.17 98.462 98.462v433.231c0 54.292-44.17 98.462-98.462 98.462h-433.231zM787.692 467.692c-10.89 0-19.692 8.802-19.692 19.692v235.225c0 21.937-18.038 40.468-39.385 40.468h-433.231c-21.346 0-39.385-18.53-39.385-40.468v-235.225c0-10.89-8.802-19.692-19.692-19.692s-19.692 8.802-19.692 19.692v235.225c0 44.032 35.348 79.852 78.769 79.852h433.231c43.422 0 78.769-35.82 78.769-79.852v-235.225c0-10.89-8.802-19.692-19.692-19.692zM787.692 467.692h-551.385c-10.89 0-19.692 8.802-19.692 19.692s8.802 19.692 19.692 19.692h551.385c10.89 0 19.692-8.802 19.692-19.692s-8.802-19.692-19.692-19.692zM256 113.231l-59.077-59.077h98.462l59.077 59.077zM295.385 34.462h-98.462c-7.956 0-15.163 4.785-18.196 12.15s-1.359 15.833 4.273 21.465l59.077 59.077c3.682 3.702 8.684 5.77 13.922 5.77h98.462c7.956 0 15.163-4.785 18.196-12.15s1.359-15.833-4.273-21.465l-59.077-59.077c-3.682-3.702-8.684-5.77-13.922-5.77zM244.46 73.846h42.772l19.692 19.692h-42.772l-19.692-19.692zM768 113.231l59.077-59.077h-98.462l-59.077 59.077zM827.471 34.462c-0.118 0.020-0.256 0.020-0.394 0h-98.462c-5.238 0-10.24 2.068-13.922 5.77l-59.077 59.077c-5.632 5.632-7.306 14.1-4.273 21.465s10.24 12.15 18.196 12.15h98.462c5.238 0 10.24-2.068 13.922-5.77l56.93-56.93c5.041-3.584 8.31-9.433 8.31-16.069 0-10.89-8.822-19.692-19.692-19.692zM736.768 73.846h42.772l-19.692 19.692h-42.772l19.692-19.692z" />
<glyph unicode="&#xe782;" d="M838.42 537.856c-9.826 11.756-24.734 18.452-40.881 18.452h-118.154c-3.702 0-6.656 0.945-7.739 2.481-1.103 1.516-0.965 4.628 0.315 8.113l51.85 142.572c10.516 28.928 0.158 63.98-23.65 79.833s-61.164 9.295-80.916-14.060l-165.75-195.82c-16.876-19.929-30.11-56.044-30.11-82.196v-256c0-32.571 26.506-59.077 59.077-59.077h256c31.35 0 60.199 24.202 65.615 55.079l45.391 257.201c2.796 15.892-1.221 31.724-11.047 43.422zM765.302 244.086c-2.127-12.012-14.671-22.548-26.841-22.548h-256c-10.87 0-19.692 8.842-19.692 19.692v256c0 17.152 9.708 43.658 20.795 56.753l165.75 195.82c4.805 5.711 12.386 9.275 19.692 9.275 3.623 0 6.853-0.886 9.314-2.54 7.877-5.258 13.194-20.736 8.527-33.595l-51.85-142.572c-5.77-15.833-4.135-31.921 4.45-44.17 8.606-12.249 23.158-19.279 39.956-19.279h118.154c4.529 0 8.369-1.556 10.713-4.372 2.363-2.816 3.23-6.833 2.442-11.303l-45.41-257.162zM324.923 556.308h-78.769c-32.571 0-59.077-26.506-59.077-59.077v-256c0-32.571 26.506-59.077 59.077-59.077h78.769c32.571 0 59.077 26.506 59.077 59.077v256c0 32.571-26.506 59.077-59.077 59.077zM344.615 241.231c0-10.85-8.822-19.692-19.692-19.692h-78.769c-10.87 0-19.692 8.842-19.692 19.692v256c0 10.87 8.822 19.692 19.692 19.692h78.769c10.87 0 19.692-8.822 19.692-19.692v-256zM305.231 457.846c0-10.876-8.817-19.692-19.692-19.692s-19.692 8.817-19.692 19.692c0 10.876 8.817 19.692 19.692 19.692 10.876 0 19.692-8.817 19.692-19.692z" />
<glyph unicode="&#xe783;" d="M549.317 704h-256c-31.35 0-60.18-24.182-65.615-55.060l-45.391-257.182c-2.836-15.911 1.221-31.744 11.047-43.461 9.807-11.737 24.714-18.452 40.881-18.452h118.154c3.702 0 6.656-0.945 7.739-2.481 1.083-1.516 0.945-4.628-0.315-8.113l-51.85-142.572c-10.516-28.928-0.118-63.98 23.65-79.833 8.98-5.986 19.751-9.157 31.173-9.157 18.865 0 37.455 8.665 49.762 23.217l165.73 195.82c16.857 19.948 30.090 56.064 30.090 82.196v256c0.020 32.571-26.486 59.077-59.057 59.077zM569.009 388.923c0-17.152-9.708-43.658-20.795-56.753l-165.73-195.82c-7.207-8.546-21.524-11.756-29.026-6.735-7.857 5.258-13.174 20.736-8.507 33.595l51.85 142.572c5.77 15.833 4.135 31.921-4.45 44.17s-23.138 19.279-39.956 19.279h-118.154c-4.549 0-8.369 1.556-10.713 4.372-2.363 2.816-3.23 6.833-2.442 11.303l45.391 257.201c2.127 11.993 14.651 22.508 26.841 22.508h256c10.87 0 19.692-8.822 19.692-19.692v-256zM785.625 704h-78.769c-32.571 0-59.077-26.506-59.077-59.077v-256c0-32.571 26.506-59.077 59.077-59.077h78.769c32.571 0 59.077 26.506 59.077 59.077v256c0 32.571-26.506 59.077-59.077 59.077zM805.317 388.923c0-10.87-8.822-19.692-19.692-19.692h-78.769c-10.87 0-19.692 8.822-19.692 19.692v256c0 10.87 8.822 19.692 19.692 19.692h78.769c10.87 0 19.692-8.822 19.692-19.692v-256zM765.932 428.308c0-10.876-8.817-19.692-19.692-19.692s-19.692 8.817-19.692 19.692c0 10.876 8.817 19.692 19.692 19.692 10.876 0 19.692-8.817 19.692-19.692z" />
<glyph unicode="&#xe784;" d="M590.769 383.803v320.197c0 43.52-35.249 78.769-78.769 78.769s-78.769-35.249-78.769-78.769v-320.197c-36.628-25.6-59.077-67.938-59.077-113.034 0-76.012 61.834-137.846 137.846-137.846s137.846 61.834 137.846 137.846c0 45.095-22.449 87.434-59.077 113.034zM512 172.308c-54.351 0-98.462 44.111-98.462 98.462 0 34.855 18.905 67.545 49.231 85.268 6.105 3.348 9.846 9.846 9.846 16.935v331.028c0 21.662 17.723 39.385 39.385 39.385s39.385-17.723 39.385-39.385v-331.028c0-7.089 3.742-13.588 9.846-16.935 30.326-17.723 49.231-50.412 49.231-85.268 0-54.351-44.111-98.462-98.462-98.462zM531.692 346.978v101.022c0 10.831-8.862 19.692-19.692 19.692s-19.692-8.862-19.692-19.692v-101.022c-12.209-3.151-23.434-9.255-32.689-17.526 0.985 0.394 1.969 0.394 3.151 0.394 7.68 0 14.769-2.954 19.889-7.877 4.923-4.332 8.271-10.417 9.275-17.329 0.177-1.378 0.374-2.757 0.374-4.332 0-12.8-8.271-23.828-19.692-27.569-3.151-1.359-6.302-1.969-9.846-1.969-3.348 0-6.695 0.591-9.649 1.772-8.074 2.56-14.572 8.862-17.703 16.758-1.398-5.927-2.186-12.229-2.186-18.53 0-43.52 35.249-78.769 78.769-78.769s78.769 35.249 78.769 78.769c0 36.628-25.009 67.545-59.077 76.209z" />
<glyph unicode="&#xe785;" d="M590.769 383.803v320.197c0 43.52-35.249 78.769-78.769 78.769s-78.769-35.249-78.769-78.769v-320.197c-36.628-25.6-59.077-67.938-59.077-113.034 0-76.012 61.834-137.846 137.846-137.846s137.846 61.834 137.846 137.846c0 45.095-22.449 87.434-59.077 113.034zM512 172.308c-54.351 0-98.462 44.111-98.462 98.462 0 34.855 18.905 67.545 49.231 85.268 6.105 3.348 9.846 9.846 9.846 16.935v331.028c0 21.662 17.723 39.385 39.385 39.385s39.385-17.723 39.385-39.385v-331.028c0-7.089 3.742-13.588 9.846-16.935 30.326-17.723 49.231-50.412 49.231-85.268 0-54.351-44.111-98.462-98.462-98.462zM531.692 346.978v357.022c0 10.831-8.862 19.692-19.692 19.692s-19.692-8.862-19.692-19.692v-357.022c-12.209-3.151-23.434-9.255-32.689-17.526 0.985 0.394 1.969 0.394 3.151 0.394 7.68 0 14.769-2.954 19.889-7.877 4.923-4.332 8.271-10.417 9.275-17.329 0.177-1.378 0.374-2.757 0.374-4.332 0-12.8-8.271-23.828-19.692-27.569-3.151-1.359-6.302-1.969-9.846-1.969-3.348 0-6.695 0.591-9.649 1.772-8.074 2.56-14.572 8.862-17.703 16.758-1.398-5.927-2.186-12.229-2.186-18.53 0-43.52 35.249-78.769 78.769-78.769s78.769 35.249 78.769 78.769c0 36.628-25.009 67.545-59.077 76.209z" />
<glyph unicode="&#xe786;" d="M773.809 262.341l-139.028 260.647c-2.068 3.899-4.628 14.139-4.628 18.55v201.846c0 10.87 8.822 19.692 19.692 19.692 10.89 0 19.692 8.802 19.692 19.692s-8.802 19.692-19.692 19.692h-275.692c-10.89 0-19.692-8.802-19.692-19.692s8.802-19.692 19.692-19.692c10.87 0 19.692-8.822 19.692-19.692v-201.846c0-4.411-2.56-14.651-4.647-18.57l-138.988-260.569c-8.192-15.419-13.903-38.262-13.903-55.631v-34.462c0-32.571 26.506-59.077 59.077-59.077h433.231c32.571 0 59.077 26.506 59.077 59.077v34.462c0 17.369-5.711 40.212-13.883 55.572zM423.956 504.458c5.1 9.59 9.275 26.25 9.275 37.081v201.846c0 10.831 8.862 19.692 19.692 19.692h118.154c10.831 0 19.692-8.862 19.692-19.692v-19.692h-59.077v-39.385h59.077v-39.385h-59.077v-39.385h59.077v-39.385h-59.077v-39.385h60.967c1.674-8.133 4.293-16.502 7.385-22.311l61.617-115.535h-299.323l61.617 115.535zM748.308 172.308c0-10.831-8.862-19.692-19.692-19.692h-196.923c-10.831 0-28.554 0-39.385 0h-196.923c-10.831 0-19.692 8.862-19.692 19.692v34.462c0 10.831 4.175 27.49 9.275 37.081l56.359 105.689h341.346l56.359-105.689c5.1-9.59 9.275-26.25 9.275-37.081v-34.462z" />
<glyph unicode="&#xe787;" d="M866.462 743.385h-689.231c-32.571 0-59.077-26.506-59.077-59.077v-413.538c0-32.571 26.506-59.077 59.077-59.077h689.231c32.571 0 59.077 26.506 59.077 59.077v413.538c0 32.571-26.506 59.077-59.077 59.077zM886.154 270.769c0-10.87-8.822-19.692-19.692-19.692h-689.231c-10.85 0-19.692 8.822-19.692 19.692v413.538c0 10.87 8.842 19.692 19.692 19.692h689.231c10.87 0 19.692-8.822 19.692-19.692v-413.538zM669.538 684.308h-433.231c-32.571 0-59.077-26.506-59.077-59.077v-295.385c0-32.571 26.506-59.077 59.077-59.077h433.231c32.571 0 59.077 26.506 59.077 59.077v295.385c0 32.571-26.506 59.077-59.077 59.077zM689.231 329.846c0-10.87-8.822-19.692-19.692-19.692h-433.231c-10.85 0-19.692 8.822-19.692 19.692v295.385c0 10.87 8.842 19.692 19.692 19.692h433.231c10.87 0 19.692-8.822 19.692-19.692v-295.385zM807.385 683.225c-32.571 0-59.077-26.506-59.077-59.077s26.506-59.077 59.077-59.077 59.077 26.506 59.077 59.077-26.506 59.077-59.077 59.077zM807.385 604.455c-10.87 0-19.692 8.822-19.692 19.692s8.822 19.692 19.692 19.692 19.692-8.822 19.692-19.692-8.822-19.692-19.692-19.692zM748.308 192h-452.923c-10.87 0-19.692-8.802-19.692-19.692s8.822-19.692 19.692-19.692h452.923c10.89 0 19.692 8.802 19.692 19.692s-8.802 19.692-19.692 19.692zM846.769 526.769h-78.769c-10.89 0-19.692-8.802-19.692-19.692s8.802-19.692 19.692-19.692h78.769c10.89 0 19.692 8.802 19.692 19.692s-8.802 19.692-19.692 19.692z" />
<glyph unicode="&#xe788;" d="M689.231 782.769h-354.462c-21.74 0-39.385-17.644-39.385-39.385v-590.769c0-21.74 17.644-39.385 39.385-39.385h354.462c21.74 0 39.385 17.644 39.385 39.385v590.769c0 21.74-17.644 39.385-39.385 39.385zM689.231 152.615h-354.462v590.769h354.462v-590.769zM458.693 591.616l27.845 27.845-49.231 49.231 35.308 35.308h-98.462v-98.462l35.308 35.308zM565.307 591.616l49.231 49.231 35.308-35.308v98.462h-98.462l35.308-35.308-49.231-49.231zM437.307 227.308l49.231 49.231-27.845 27.845-49.231-49.231-35.308 35.308v-98.462h98.462zM551.385 192h98.462v98.462l-35.308-35.308-49.231 49.231-27.845-27.845 49.231-49.231z" />
<glyph unicode="&#xe789;" d="M748.308 507.077h-19.692v98.462c0 21.662-17.723 39.385-39.385 39.385h-39.385v118.154c0 21.662-17.723 39.385-39.385 39.385h-334.769c-21.662 0-39.385-17.723-39.385-39.385v-610.462c0-21.662 17.723-39.385 39.385-39.385h472.615c21.662 0 39.385 17.723 39.385 39.385v315.077c0 21.662-17.723 39.385-39.385 39.385zM649.846 152.615h-59.077v315.077h157.538v-315.077h-98.462zM433.231 152.615v452.923h256v-98.462h-98.462c-21.662 0-39.385-17.723-39.385-39.385v-315.077h-118.154zM275.692 152.615v610.462h334.769v-118.154h-177.231c-21.662 0-39.385-17.723-39.385-39.385v-452.923h-118.154z" />
<glyph unicode="&#xe78a;" d="M334.769 664.615h-39.385v-433.231h433.231v433.231h-393.846zM689.231 270.769h-354.462v354.462h354.462v-354.462zM866.462 625.231c10.831 0 19.692 8.862 19.692 19.692v19.692c0 10.831-8.862 19.692-19.692 19.692h-39.385v19.692c0 32.571-26.506 59.077-59.077 59.077h-19.692v39.385c0 10.831-8.862 19.692-19.692 19.692h-19.692c-10.831 0-19.692-8.862-19.692-19.692v-39.385h-78.769v39.385c0 10.831-8.862 19.692-19.692 19.692h-19.692c-10.831 0-19.692-8.862-19.692-19.692v-39.385h-78.769v39.385c0 10.831-8.862 19.692-19.692 19.692h-19.692c-10.831 0-19.692-8.862-19.692-19.692v-39.385h-78.769v39.385c0 10.831-8.862 19.692-19.692 19.692h-19.692c-10.831 0-19.692-8.862-19.692-19.692v-39.385h-19.692c-32.571 0-59.077-26.506-59.077-59.077v-19.692h-39.385c-10.831 0-19.692-8.862-19.692-19.692v-19.692c0-10.831 8.862-19.692 19.692-19.692h39.385v-78.769h-39.385c-10.831 0-19.692-8.862-19.692-19.692v-19.692c0-10.831 8.862-19.692 19.692-19.692h39.385v-78.769h-39.385c-10.831 0-19.692-8.862-19.692-19.692v-19.692c0-10.831 8.862-19.692 19.692-19.692h39.385v-78.769h-39.385c-10.831 0-19.692-8.862-19.692-19.692v-19.692c0-10.831 8.862-19.692 19.692-19.692h39.385v-19.692c0-32.571 26.506-59.077 59.077-59.077h19.692v-39.385c0-10.831 8.862-19.692 19.692-19.692h19.692c10.831 0 19.692 8.862 19.692 19.692v39.385h78.769v-39.385c0-10.831 8.862-19.692 19.692-19.692h19.692c10.831 0 19.692 8.862 19.692 19.692v39.385h78.769v-39.385c0-10.831 8.862-19.692 19.692-19.692h19.692c10.831 0 19.692 8.862 19.692 19.692v39.385h78.769v-39.385c0-10.831 8.862-19.692 19.692-19.692h19.692c10.831 0 19.692 8.862 19.692 19.692v39.385h19.692c32.571 0 59.077 26.506 59.077 59.077v19.692h39.385c10.831 0 19.692 8.862 19.692 19.692v19.692c0 10.831-8.862 19.692-19.692 19.692h-39.385v78.769h39.385c10.831 0 19.692 8.862 19.692 19.692v19.692c0 10.831-8.862 19.692-19.692 19.692h-39.385v78.769h39.385c10.831 0 19.692 8.862 19.692 19.692v19.692c0 10.831-8.862 19.692-19.692 19.692h-39.385v78.769h39.385zM787.692 192c0-10.87-8.842-19.692-19.692-19.692h-512c-10.85 0-19.692 8.822-19.692 19.692v512c0 10.87 8.842 19.692 19.692 19.692h512c10.85 0 19.692-8.822 19.692-19.692v-512z" />
<glyph unicode="&#xe78b;" d="M827.077 684.308h-39.385v39.385c0 10.831-8.862 19.692-19.692 19.692h-19.692c-10.831 0-19.692-8.862-19.692-19.692v-39.385h-59.077v39.385c0 10.831-8.862 19.692-19.692 19.692h-19.692c-10.831 0-19.692-8.862-19.692-19.692v-39.385h-59.077v39.385c0 10.831-8.862 19.692-19.692 19.692h-19.692c-10.831 0-19.692-8.862-19.692-19.692v-39.385h-59.077v39.385c0 10.831-8.862 19.692-19.692 19.692h-19.692c-10.831 0-19.692-8.862-19.692-19.692v-39.385h-59.077v39.385c0 10.831-8.862 19.692-19.692 19.692h-19.692c-10.831 0-19.692-8.862-19.692-19.692v-39.385h-39.385c-32.571 0-59.077-26.506-59.077-59.077v-334.769c0-32.571 26.506-59.077 59.077-59.077h39.385v-39.385c0-10.831 8.862-19.692 19.692-19.692h19.692c10.831 0 19.692 8.862 19.692 19.692v39.385h59.077v-39.385c0-10.831 8.862-19.692 19.692-19.692h19.692c10.831 0 19.692 8.862 19.692 19.692v39.385h59.077v-39.385c0-10.831 8.862-19.692 19.692-19.692h19.692c10.831 0 19.692 8.862 19.692 19.692v39.385h59.077v-39.385c0-10.831 8.862-19.692 19.692-19.692h19.692c10.831 0 19.692 8.862 19.692 19.692v39.385h59.077v-39.385c0-10.831 8.862-19.692 19.692-19.692h19.692c10.831 0 19.692 8.862 19.692 19.692v39.385h39.385c32.571 0 59.077 26.506 59.077 59.077v334.769c0 32.571-26.506 59.077-59.077 59.077zM846.769 290.462c0-10.87-8.842-19.692-19.692-19.692h-610.462c-10.85 0-19.692 8.822-19.692 19.692v334.769c0 10.87 8.842 19.692 19.692 19.692h610.462c10.85 0 19.692-8.822 19.692-19.692v-334.769z" />
<glyph unicode="&#xe78c;" d="M275.692 684.308h433.231v98.462c0 32.492-26.585 59.077-59.077 59.077h-354.462c-32.492 0-59.077-26.585-59.077-59.077v-669.538c0-32.492 26.585-59.077 59.077-59.077h354.462c32.492 0 59.077 26.585 59.077 59.077v137.846h-433.231v433.231zM275.692 782.769c0 10.831 8.862 19.692 19.692 19.692h354.462c10.831 0 19.692-8.862 19.692-19.692v-59.077h-393.846v59.077zM669.538 211.692v-98.462c0-10.831-8.862-19.692-19.692-19.692h-354.462c-10.831 0-19.692 8.862-19.692 19.692v98.462h393.846zM551.385 782.769h-157.538c-10.87 0-19.692-8.802-19.692-19.692s8.822-19.692 19.692-19.692h157.538c10.89 0 19.692 8.802 19.692 19.692s-8.802 19.692-19.692 19.692zM433.231 113.231h78.769c10.87 0 19.692 8.802 19.692 19.692v39.385c0 10.89-8.822 19.692-19.692 19.692h-78.769c-10.87 0-19.692-8.802-19.692-19.692v-39.385c0-10.89 8.822-19.692 19.692-19.692zM787.692 566.154v39.385h-39.385v19.692c0 10.831-8.862 19.692-19.692 19.692h-177.231c-10.831 0-19.692-8.862-19.692-19.692v-19.692h-39.385v-39.385h39.385v-39.385h-39.385v-39.385h39.385v-39.385h-39.385v-39.385h39.385v-39.385h-39.385v-39.385h39.385v-19.692c0-10.831 8.862-19.692 19.692-19.692h196.923v39.385h39.385v39.385h-39.385v39.385h39.385v39.385h-39.385v39.385h39.385v39.385h-39.385v39.385h39.385zM708.923 526.769v-196.923h-137.846v275.692h137.846v-78.769z" />
<glyph unicode="&#xe78d;" d="M384.295 467.692h334.198c7.641 0 14.553 4.411 17.822 11.303 3.23 6.892 2.206 15.045-2.658 20.933-31.961 38.735-75.737 66.206-124.455 78.434-5.671 26.742-29.44 46.868-57.817 46.868s-52.165-20.126-57.817-46.868c-48.738-12.229-92.495-39.719-124.475-78.434-4.864-5.888-5.888-14.041-2.639-20.933 3.269-6.892 10.201-11.303 17.841-11.303zM515.919 542.937c10.063 1.831 16.778 13.017 15.774 23.217 0 10.87 8.842 19.692 19.692 19.692s19.692-8.822 19.653-19.594c-0.039-0.256-0.236-1.812-0.256-2.048-0.985-10.201 5.986-19.436 16.049-21.268 30.149-5.494 58.388-17.881 82.53-35.86h-235.993c24.162 17.979 52.401 30.366 82.55 35.86zM421.14 587.205c10.181-3.978 21.543 1.063 25.502 11.166 29.735 76.13 101.79 125.322 183.513 125.322 108.583 0 196.923-88.34 196.923-196.923 0-38.085-10.89-75.008-31.468-106.811-5.908-9.118-3.289-21.307 5.849-27.234 3.308-2.127 6.991-3.151 10.673-3.151 6.459 0 12.78 3.17 16.561 8.999 24.714 38.183 37.77 82.53 37.77 128.197 0 130.304-106.004 236.308-236.308 236.308-98.068 0-184.517-59.018-220.199-150.351-3.938-10.122 1.063-21.543 11.185-25.521zM778.082 395.855c-8.369 29.243-38.735 52.145-69.159 52.145h-315.077c-29.716 0-59.254-21.918-68.391-50.235l-79.025 47.419c-9.019 5.396-20.677 2.777-26.526-5.967l-39.385-59.077c-4.529-6.814-4.391-15.714 0.354-22.37l94.956-132.943-8.271-28.967c-4.549-15.931-1.95-31.961 7.129-43.993 9.118-12.032 23.828-18.944 40.389-18.944h472.615c16.581 0 31.291 6.912 40.389 18.964 9.078 12.032 11.678 28.081 7.109 43.993l-57.108 199.975zM220.849 369.625l21.425 32.158 71.798-43.087-24.399-85.425-68.825 96.354zM796.613 175.596c-1.595-2.107-4.766-3.289-8.921-3.289h-472.615c-4.155 0-7.326 1.182-8.921 3.289-1.595 2.107-1.851 5.474-0.709 9.472l57.127 199.956c3.525 12.347 18.432 23.591 31.271 23.591h315.077c12.839 0 27.746-11.244 31.271-23.572l57.147-199.956c1.122-4.017 0.886-7.385-0.729-9.492z" />
<glyph unicode="&#xe78e;" d="M813.174 409.895l-318.484 319.015c-19.161 19.161-54.784 34.166-81.152 34.166h-157.538c-32.020 0-59.077-27.53-59.077-60.16v-157.538c0-27.451 15.34-62.011 35.702-80.404l355.111-321.3c10.673-9.649 24.379-14.966 38.617-14.966 17.034 0 33.142 7.582 44.15 20.775l146.491 175.813c20.263 24.3 18.53 62.267-3.82 84.598zM786.727 350.523l-146.491-175.813c-3.545-4.273-8.487-6.617-13.883-6.617-3.151 0-7.818 0.827-12.19 4.766l-355.131 321.319c-11.894 10.772-22.725 35.17-22.725 51.2v157.538c0 11.067 9.216 20.775 19.692 20.775h157.538c16.049 0 41.452-10.791 53.287-22.587l318.484-319.015c8.054-8.074 8.724-22.823 1.418-31.567zM334.769 702.917c-43.441 0-78.769-35.328-78.769-78.769s35.328-78.769 78.769-78.769 78.769 35.328 78.769 78.769-35.328 78.769-78.769 78.769zM334.769 584.763c-21.721 0-39.385 17.664-39.385 39.385s17.664 39.385 39.385 39.385 39.385-17.664 39.385-39.385-17.664-39.385-39.385-39.385z" />
<glyph unicode="&#xe78f;" d="M512 624.148c-108.583 0-196.923-88.34-196.923-196.923 0-108.603 88.34-196.923 196.923-196.923 108.583 0 196.923 88.32 196.923 196.923 0 108.583-88.34 196.923-196.923 196.923zM512 269.686c-86.863 0-157.538 70.676-157.538 157.538 0 86.863 70.676 157.538 157.538 157.538s157.538-70.676 157.538-157.538c0-86.863-70.676-157.538-157.538-157.538zM512 684.308c10.87 0 19.692 8.822 19.692 19.692v78.769c0 10.87-8.822 19.692-19.692 19.692s-19.692-8.822-19.692-19.692v-78.769c0-10.87 8.822-19.692 19.692-19.692zM706.934 602.466c5.041 0 10.082 1.93 13.922 5.77l55.69 55.71c7.7 7.7 7.7 20.165 0 27.845-7.7 7.7-20.145 7.7-27.845 0l-55.69-55.71c-7.7-7.7-7.7-20.165 0-27.845 3.86-3.84 8.901-5.77 13.922-5.77zM866.462 448h-78.769c-10.89 0-19.692-8.802-19.692-19.692s8.802-19.692 19.692-19.692h78.769c10.89 0 19.692 8.802 19.692 19.692s-8.802 19.692-19.692 19.692zM720.857 246.193c-7.7 7.7-20.145 7.7-27.845 0s-7.7-20.145 0-27.845l55.69-55.69c3.84-3.84 8.881-5.77 13.922-5.77s10.082 1.93 13.922 5.77c7.7 7.7 7.7 20.145 0 27.845l-55.69 55.69zM512 172.308c-10.87 0-19.692-8.802-19.692-19.692v-78.769c0-10.89 8.822-19.692 19.692-19.692s19.692 8.802 19.692 19.692v78.769c0 10.89-8.822 19.692-19.692 19.692zM303.124 246.193l-55.69-55.69c-7.7-7.7-7.7-20.145 0-27.845 3.84-3.84 8.881-5.77 13.922-5.77s10.082 1.93 13.922 5.77l55.69 55.69c7.7 7.7 7.7 20.145 0 27.845s-20.165 7.7-27.845 0zM256 428.308c0 10.89-8.822 19.692-19.692 19.692h-78.769c-10.87 0-19.692-8.802-19.692-19.692s8.822-19.692 19.692-19.692h78.769c10.87 0 19.692 8.802 19.692 19.692zM303.143 608.256c3.84-3.84 8.881-5.77 13.922-5.77s10.082 1.93 13.922 5.77c7.7 7.7 7.7 20.165 0 27.845l-55.71 55.69c-7.7 7.7-20.165 7.7-27.845 0-7.7-7.7-7.7-20.165 0-27.845l55.71-55.69z" />
<glyph unicode="&#xe790;" d="M512 685.391c10.87 0 19.692 8.822 19.692 19.692v78.769c0 10.87-8.822 19.692-19.692 19.692s-19.692-8.822-19.692-19.692v-78.769c0-10.89 8.822-19.692 19.692-19.692zM706.934 603.55c5.041 0 10.082 1.93 13.922 5.77l55.69 55.71c7.7 7.7 7.7 20.165 0 27.845-7.7 7.7-20.145 7.7-27.845 0l-55.69-55.71c-7.7-7.7-7.7-20.165 0-27.845 3.86-3.84 8.901-5.77 13.922-5.77zM768 429.391c0-10.89 8.802-19.692 19.692-19.692h78.769c10.89 0 19.692 8.802 19.692 19.692s-8.802 19.692-19.692 19.692h-78.769c-10.89 0-19.692-8.822-19.692-19.692zM303.124 247.276l-55.69-55.69c-7.7-7.7-7.7-20.145 0-27.845 3.84-3.84 8.881-5.77 13.922-5.77s10.082 1.93 13.922 5.77l55.69 55.69c7.7 7.7 7.7 20.145 0 27.845s-20.165 7.68-27.845 0zM256 429.391c0 10.89-8.822 19.692-19.692 19.692h-78.769c-10.87 0-19.692-8.802-19.692-19.692s8.822-19.692 19.692-19.692h78.769c10.87 0 19.692 8.802 19.692 19.692zM303.143 609.319c3.84-3.84 8.881-5.77 13.922-5.77s10.082 1.93 13.922 5.77c7.7 7.7 7.7 20.165 0 27.845l-55.71 55.69c-7.7 7.7-20.165 7.7-27.845 0-7.7-7.7-7.7-20.165 0-27.845l55.71-55.69zM830.385 250.742c3.505 11.5 5.317 23.572 5.317 35.938 0 67.958-55.316 123.274-123.274 123.274-1.556 0-3.052-0.177-4.608-0.236 0.591 6.164 1.103 12.367 1.103 18.59 0 108.583-88.34 196.923-196.923 196.923-108.583 0-196.923-88.34-196.923-196.923 0-76.583 44.465-145.506 112.482-177.802-40.743-2.974-73.098-36.706-73.098-78.198 0-43.441 35.328-78.769 78.769-78.769 1.89 0 3.604 0.571 5.337 1.083h383.173c1.713-0.512 3.446-1.083 5.337-1.083 43.422 0 78.769 35.328 78.769 78.769 0 42.299-33.575 76.662-75.461 78.434zM354.462 428.308c0 86.863 70.676 157.538 157.538 157.538s157.538-70.676 157.538-157.538c0-9.196-1.063-18.235-2.619-27.156-28.692-11.461-52.047-33.398-65.398-61.086-17.861 17.999-42.555 29.164-69.829 29.164-47.419 0-87.079-33.694-96.394-78.375-49.172 27.451-80.837 79.695-80.837 137.452zM830.641 133.297c-1.201 0.217-2.284 0.709-3.564 0.709h-393.846c-1.26 0-2.363-0.492-3.564-0.709-20.027 1.812-35.82 18.511-35.82 39.010 0 21.721 17.664 39.385 39.385 39.385 10.476 0 20.362-4.096 27.806-11.52 7.719-7.719 20.185-7.68 27.865 0.039 0.098 0.098 0.138 0.256 0.236 0.374 0.256 0.236 0.591 0.315 0.847 0.551 7.68 7.7 7.66 20.165-0.039 27.845-11.166 11.146-17.329 25.974-17.329 41.787 0 32.571 26.506 59.077 59.077 59.077s59.077-26.506 59.077-59.077c0-10.89 8.802-19.692 19.692-19.692s19.692 8.802 19.692 19.692c0 5.415-0.748 10.634-1.595 15.813 0 0.039 0.020 0.079 0.020 0.118 0 46.257 37.612 83.889 83.85 83.889 46.257 0 83.889-37.632 83.889-83.889 0-21.189-8.034-41.039-22.331-56.556-0.827-0.768-1.792-1.319-2.599-2.127-5.927-5.927-7.168-14.631-3.958-21.858 0.965-2.383 2.383-4.628 4.332-6.558 3.84-3.84 8.881-5.77 13.922-5.77s10.082 1.93 13.922 5.77c1.103 1.122 2.068 2.304 3.131 3.446 6.912 5.494 15.36 8.645 24.34 8.645 21.74 0 39.385-17.664 39.385-39.385 0-20.5-15.813-37.199-35.82-39.010z" />
<glyph unicode="&#xe791;" d="M452.923 580.588c71.818 0 134.538-48.482 152.517-117.898 2.718-10.535 13.489-16.817 24.005-14.139 10.516 2.737 16.857 13.47 14.139 24.005-22.489 86.804-100.884 147.417-190.661 147.417-108.583 0-196.923-88.34-196.923-196.923 0-75.284 41.905-142.907 109.391-176.443 2.816-1.398 5.79-2.048 8.743-2.048 7.247 0 14.218 3.998 17.644 10.929 4.844 9.748 0.866 21.563-8.881 26.407-53.977 26.821-87.513 80.916-87.513 141.154 0 86.882 70.676 157.538 157.538 157.538zM377.403 199.897l-90.506-64.414 10.516 110.592c0.551 5.849-1.536 11.638-5.691 15.793s-9.886 6.164-15.793 5.671l-110.592-10.496 64.414 90.506c3.407 4.785 4.49 10.85 2.974 16.522s-5.494 10.358-10.831 12.82l-101.022 46.178 101.022 46.178c5.337 2.442 9.314 7.148 10.831 12.82s0.433 11.737-2.974 16.522l-64.414 90.506 110.592-10.516c5.908-0.571 11.638 1.536 15.793 5.691s6.242 9.945 5.691 15.793l-10.516 110.592 90.506-64.414c4.785-3.387 10.831-4.49 16.522-2.974 5.671 1.516 10.378 5.494 12.82 10.831l46.178 101.002 46.178-101.022c2.442-5.337 7.148-9.314 12.82-10.831 5.671-1.516 11.717-0.414 16.522 2.974l90.526 64.414-10.535-110.592c-0.532-5.849 1.536-11.638 5.691-15.793s9.846-6.262 15.793-5.691l110.592 10.516-64.414-90.506c-6.302-8.862-4.234-21.169 4.608-27.471 8.862-6.282 21.15-4.214 27.471 4.628l89.423 125.617c4.47 6.282 4.844 14.592 1.004 21.268s-11.343 10.417-18.924 9.767l-129.772-12.347 12.347 129.753c0.729 7.68-3.072 15.065-9.748 18.924-6.676 3.84-14.966 3.466-21.268-1.004l-106.201-75.579-54.193 118.528c-3.21 6.991-10.201 11.5-17.92 11.5s-14.71-4.51-17.92-11.5l-54.174-118.528-106.201 75.579c-6.302 4.47-14.612 4.844-21.268 1.004-6.676-3.86-10.496-11.244-9.767-18.924l12.347-129.753-129.753 12.347c-7.562 0.67-15.065-3.092-18.924-9.767-3.84-6.676-3.446-14.986 1.004-21.268l75.579-106.201-118.528-54.174c-7.010-3.21-11.5-10.201-11.5-17.92s4.51-14.71 11.5-17.9l118.528-54.193-75.559-106.181c-4.47-6.282-4.864-14.592-1.004-21.268 3.86-6.695 11.362-10.535 18.924-9.748l129.753 12.327-12.347-129.753c-0.729-7.68 3.092-15.065 9.767-18.924 3.052-1.772 6.459-2.639 9.846-2.639 4.017 0 8.015 1.241 11.422 3.663l125.617 89.403c8.862 6.302 10.929 18.59 4.628 27.471-6.341 8.822-18.629 10.91-27.49 4.588zM928.847 284.889c3.505 11.5 5.317 23.572 5.317 35.938 0 67.978-55.316 123.274-123.274 123.274-48.817 0-90.959-28.613-110.907-69.888-17.861 17.979-42.555 29.145-69.829 29.145-54.292 0-98.462-44.17-98.462-98.462 0-6.774 0.729-13.41 2.048-19.889-0.689 0.020-1.339 0.197-2.048 0.197-43.441 0-78.769-35.328-78.769-78.769s35.328-78.769 78.769-78.769c1.89 0 3.623 0.571 5.337 1.083h383.153c1.733-0.492 3.466-1.083 5.337-1.083 43.422 0 78.769 35.328 78.769 78.769 0.020 42.319-33.556 76.662-75.441 78.454zM929.103 167.424c-1.201 0.217-2.284 0.709-3.564 0.709h-393.846c-1.26 0-2.363-0.492-3.564-0.709-20.027 1.831-35.82 18.511-35.82 39.010 0 21.721 17.664 39.385 39.385 39.385 10.457 0 20.342-4.096 27.806-11.52 7.7-7.719 20.165-7.68 27.845 0.039 0.118 0.098 0.158 0.256 0.256 0.374 0.256 0.236 0.591 0.315 0.847 0.551 7.68 7.7 7.68 20.165-0.039 27.845-11.166 11.166-17.329 25.994-17.329 41.787 0 32.571 26.506 59.077 59.077 59.077s59.077-26.506 59.077-59.077c0-10.89 8.802-19.692 19.692-19.692s19.692 8.802 19.692 19.692c0 5.415-0.748 10.634-1.595 15.813 0 0.039 0.020 0.079 0.020 0.118 0 46.257 37.612 83.889 83.85 83.889 46.257 0 83.889-37.632 83.889-83.889 0-21.189-8.034-41.039-22.331-56.556-0.827-0.768-1.792-1.319-2.599-2.127-5.927-5.927-7.168-14.631-3.958-21.858 0.965-2.383 2.383-4.628 4.332-6.558 3.84-3.84 8.881-5.77 13.922-5.77s10.082 1.93 13.922 5.77c1.103 1.122 2.068 2.304 3.131 3.446 6.932 5.514 15.36 8.665 24.34 8.665 21.74 0 39.385-17.664 39.385-39.385 0-20.519-15.813-37.199-35.82-39.030z" />
<glyph unicode="&#xe792;" d="M512 639.665c-108.583 0-196.923-88.34-196.923-196.923 0-108.583 88.34-196.923 196.923-196.923 108.583 0 196.923 88.34 196.923 196.923 0 108.603-88.34 196.923-196.923 196.923zM512 285.204c-86.863 0-157.538 70.676-157.538 157.538s70.676 157.538 157.538 157.538 157.538-70.676 157.538-157.538-70.676-157.538-157.538-157.538zM899.584 460.662l-118.528 54.174 75.599 106.201c4.47 6.282 4.844 14.592 1.004 21.268s-11.264 10.417-18.924 9.767l-129.772-12.347 12.347 129.753c0.729 7.68-3.072 15.065-9.748 18.924-6.676 3.84-14.986 3.466-21.268-1.004l-106.201-75.579-54.174 118.528c-3.21 6.991-10.201 11.5-17.92 11.5s-14.71-4.51-17.92-11.5l-54.174-118.528-106.201 75.579c-6.302 4.47-14.592 4.844-21.268 1.004-6.676-3.86-10.496-11.244-9.767-18.924l12.347-129.753-129.753 12.347c-7.601 0.67-15.065-3.092-18.924-9.767-3.84-6.676-3.446-14.986 1.004-21.268l75.579-106.201-118.528-54.174c-7.010-3.21-11.5-10.201-11.5-17.92s4.51-14.71 11.5-17.9l118.528-54.193-75.559-106.181c-4.47-6.282-4.864-14.592-1.004-21.268 3.86-6.695 11.323-10.535 18.924-9.748l129.753 12.327-12.347-129.753c-0.729-7.68 3.092-15.065 9.767-18.924s14.966-3.446 21.268 1.024l106.201 75.579 54.174-118.548c3.21-6.991 10.201-11.5 17.92-11.5s14.71 4.51 17.92 11.5l54.174 118.548 106.201-75.579c6.282-4.47 14.592-4.884 21.268-1.024s10.476 11.244 9.748 18.924l-12.347 129.753 129.772-12.327c7.66-0.788 15.084 3.052 18.924 9.748 3.84 6.676 3.466 14.986-1.004 21.268l-75.599 106.201 118.528 54.193c7.010 3.19 11.52 10.201 11.52 17.9s-4.529 14.69-11.54 17.9zM742.991 396.583c-5.337-2.462-9.314-7.148-10.831-12.82s-0.433-11.737 2.974-16.522l64.414-90.506-110.592 10.496c-5.868 0.492-11.638-1.516-15.793-5.671s-6.223-9.945-5.691-15.793l10.535-110.592-90.526 64.414c-4.805 3.426-10.87 4.549-16.522 2.974-5.671-1.516-10.378-5.474-12.8-10.831l-46.159-101.022-46.178 101.041c-2.442 5.337-7.148 9.314-12.82 10.831-1.674 0.453-3.387 0.67-5.1 0.67-4.057 0-8.054-1.241-11.422-3.663l-90.506-64.414 10.516 110.592c0.551 5.849-1.536 11.638-5.691 15.793s-9.905 6.164-15.793 5.671l-110.592-10.496 64.414 90.506c3.407 4.785 4.49 10.85 2.974 16.522s-5.494 10.358-10.831 12.82l-101.022 46.178 101.022 46.178c5.337 2.442 9.314 7.148 10.831 12.82s0.433 11.737-2.974 16.522l-64.414 90.506 110.592-10.516c5.888-0.571 11.638 1.536 15.793 5.691s6.242 9.945 5.691 15.793l-10.516 110.592 90.506-64.414c4.785-3.387 10.811-4.49 16.522-2.974 5.671 1.516 10.378 5.494 12.82 10.831l46.178 101.002 46.198-101.022c2.422-5.337 7.129-9.314 12.8-10.831 5.652-1.516 11.717-0.414 16.522 2.974l90.526 64.414-10.535-110.592c-0.532-5.849 1.536-11.638 5.691-15.793s9.925-6.262 15.793-5.691l110.592 10.516-64.414-90.506c-3.426-4.785-4.51-10.85-2.974-16.522s5.474-10.378 10.831-12.82l101.041-46.178-101.081-46.159z" />
<glyph unicode="&#xe793;" d="M492.308 644.923c-152.025 0-275.692-123.668-275.692-275.692s123.668-275.692 275.692-275.692 275.692 123.668 275.692 275.692-123.668 275.692-275.692 275.692zM492.308 132.923c-130.304 0-236.308 106.004-236.308 236.308s106.004 236.308 236.308 236.308c130.304 0 236.308-106.004 236.308-236.308s-106.004-236.308-236.308-236.308zM492.308 585.846c-119.434 0-216.615-97.182-216.615-216.615s97.182-216.615 216.615-216.615 216.615 97.182 216.615 216.615-97.182 216.615-216.615 216.615zM492.308 192c-97.713 0-177.231 79.498-177.231 177.231s79.518 177.231 177.231 177.231c97.733 0 177.231-79.498 177.231-177.231s-79.498-177.231-177.231-177.231zM492.308 526.769c-10.87 0-19.692-8.802-19.692-19.692v-137.846c0-10.89 8.822-19.692 19.692-19.692s19.692 8.802 19.692 19.692v137.846c0 10.89-8.822 19.692-19.692 19.692zM472.615 664.615h39.385c21.74 0 39.385 17.664 39.385 39.385v59.077c0 21.721-17.644 39.385-39.385 39.385h-39.385c-21.721 0-39.385-17.664-39.385-39.385v-59.077c0-21.721 17.664-39.385 39.385-39.385zM472.615 763.077h39.385l-0.059-59.077h-39.326v59.077zM812.583 661.642l-27.865 27.865c-14.848 14.848-40.842 14.848-55.69 0l-41.767-41.787c-15.36-15.34-15.36-40.35 0-55.69l27.845-27.845c7.424-7.424 17.31-11.52 27.845-11.52s20.421 4.096 27.845 11.52l41.787 41.767c15.34 15.34 15.34 40.33 0 55.69zM742.991 592.049c0 0-0.039-0.020-0.059-0.020v-0.020l-27.845 27.845 41.767 41.787 27.865-27.865-41.728-41.728z" />
<glyph unicode="&#xe794;" d="M512 782.769c-184.596 0-334.769-150.174-334.769-334.769s150.174-334.769 334.769-334.769 334.769 150.174 334.769 334.769-150.174 334.769-334.769 334.769zM512 152.615c-162.875 0-295.385 132.51-295.385 295.385s132.51 295.385 295.385 295.385c162.875 0 295.385-132.51 295.385-295.385s-132.51-295.385-295.385-295.385zM512 704c-141.154 0-256-114.846-256-256s114.846-256 256-256c141.154 0 256 114.846 256 256s-114.846 256-256 256zM512 664.615c71.424 0 134.695-34.895 174.198-88.379l-174.198-29.479-174.178 29.479c39.483 53.484 102.754 88.379 174.178 88.379zM298.732 411.313l116.5-42.87 15.754-121.186c-68.431 27.707-119.434 89.383-132.254 164.057zM485.809 233.118l-14.513 9.689-18.53 142.533c-0.945 7.266-5.849 13.41-12.721 15.951l-144.325 53.071c0.886 30.543 8.133 59.451 20.441 85.583l192.551-32.591c2.166-0.354 4.411-0.354 6.577 0l192.551 32.591c12.308-26.132 19.554-55.040 20.441-85.583l-144.325-53.071c-6.873-2.54-11.776-8.665-12.721-15.951l-18.53-142.533-14.494-9.669c-8.625-1.063-17.329-1.753-26.21-1.753-8.881 0-17.585 0.689-26.191 1.733zM592.994 247.257l15.774 121.186 116.5 42.87c-12.82-74.673-63.823-136.35-132.273-164.057zM571.077 428.308c0 32.571-26.506 59.077-59.077 59.077s-59.077-26.506-59.077-59.077 26.506-59.077 59.077-59.077 59.077 26.506 59.077 59.077zM492.308 428.308c0 10.87 8.842 19.692 19.692 19.692s19.692-8.822 19.692-19.692-8.842-19.692-19.692-19.692-19.692 8.822-19.692 19.692z" />
<glyph unicode="&#xe795;" d="M739.19 289.201h-42.969v42.969c0 10.89-8.802 19.692-19.692 19.692s-19.692-8.802-19.692-19.692v-42.969h-42.969c-10.89 0-19.692-8.802-19.692-19.692s8.802-19.692 19.692-19.692h42.969v-42.969c0-10.89 8.802-19.692 19.692-19.692s19.692 8.802 19.692 19.692v42.969h42.969c10.89 0 19.692 8.802 19.692 19.692s-8.802 19.692-19.692 19.692zM734.661 457.649l91.175 86.764c13.647 13.017 18.708 33.004 12.859 50.846-5.79 17.9-21.622 31.094-40.33 33.615l-177.369 23.631-77.292 161.378c-8.133 16.975-25.561 27.963-44.406 27.963-18.865 0-36.313-11.008-44.386-27.983l-77.273-161.339-177.408-23.631c-18.668-2.521-34.501-15.714-40.271-33.556-5.868-17.9-0.807-37.888 12.859-50.924l129.595-123.372-32.354-175.911c-3.426-18.511 4.214-37.652 19.515-48.817 8.566-6.164 18.747-9.334 28.987-9.334 8.034 0 16.069 1.95 23.355 5.888l137.767 74.535c1.142-107.618 88.95-194.855 196.825-194.855 108.583 0 196.923 88.34 196.923 196.923 0.020 88.379-58.466 163.328-138.772 188.18zM323.19 227.525c-3.387-1.792-7.404-1.536-10.437 0.689-3.072 2.225-4.608 6.065-3.919 9.767l36.194 196.903-144.994 138.043c-2.757 2.619-3.761 6.617-2.599 10.24 1.162 3.564 4.332 6.183 8.054 6.695l198.479 26.447 86.528 180.618c3.21 6.833 14.415 6.794 17.703-0.039l86.508-180.578 198.439-26.447c3.761-0.492 6.951-3.131 8.113-6.754 1.162-3.564 0.138-7.562-2.599-10.161l-112.443-107.028c-3.23 0.177-6.4 0.492-9.669 0.492-92.83 0-170.673-64.67-191.37-151.257l-161.989-87.631zM676.529 111.97c-86.843 0-157.538 70.676-157.538 157.538s70.695 157.538 157.538 157.538c86.882 0 157.538-70.676 157.538-157.538s-70.636-157.538-157.538-157.538z" />
<glyph unicode="&#xe796;" d="M739.17 289.201h-125.302c-10.89 0-19.692-8.802-19.692-19.692s8.802-19.692 19.692-19.692h125.302c10.89 0 19.692 8.802 19.692 19.692s-8.802 19.692-19.692 19.692zM734.641 457.649l91.175 86.764c13.607 12.977 18.649 32.945 12.839 50.924-5.849 17.861-21.662 31.015-40.31 33.536l-177.408 23.631-77.253 161.3c-8.094 17.034-25.521 28.042-44.406 28.042-18.826 0-36.273-10.988-44.426-27.983l-77.273-161.339-177.408-23.631c-18.609-2.521-34.422-15.675-40.29-33.615-5.79-17.9-0.748-37.868 12.879-50.865l129.595-123.372-32.354-175.99c-3.387-18.491 4.273-37.612 19.515-48.738 8.566-6.183 18.767-9.334 28.987-9.334 8.054 0 16.089 1.95 23.355 5.888l137.807 74.575c1.122-107.638 88.95-194.875 196.825-194.875 108.583 0 196.923 88.34 196.923 196.923 0.020 88.359-58.466 163.308-138.772 188.16zM323.092 227.505c-3.249-1.753-7.404-1.477-10.398 0.709-3.052 2.206-4.588 6.085-3.919 9.767l36.194 196.903-144.994 138.043c-2.757 2.619-3.742 6.617-2.619 10.161 1.201 3.682 4.313 6.262 8.074 6.774l198.479 26.447 86.489 180.559c3.308 6.873 14.494 6.932 17.743 0.020l86.508-180.578 198.479-26.447c3.801-0.492 6.932-3.092 8.094-6.695 1.162-3.623 0.158-7.621-2.58-10.22l-112.443-107.028c-3.23 0.177-6.4 0.492-9.669 0.492-92.83 0-170.673-64.65-191.35-151.237l-162.087-87.67zM676.51 111.97c-86.882 0-157.538 70.676-157.538 157.538s70.656 157.538 157.538 157.538c86.843 0 157.538-70.676 157.538-157.538s-70.676-157.538-157.538-157.538z" />
<glyph unicode="&#xe797;" d="M835.367 527.084c-2.343 7.207-8.625 12.446-16.128 13.45l-193.241 25.758-84.145 175.774c-6.538 13.686-29.007 13.686-35.545 0l-84.145-175.774-193.241-25.758c-7.503-1.004-13.765-6.223-16.108-13.45-2.343-7.188-0.354-15.124 5.159-20.342l141.154-134.38-35.21-191.665c-1.359-7.463 1.654-15.045 7.798-19.476 6.124-4.49 14.277-4.982 20.933-1.398l171.441 92.751 171.441-92.751c2.934-1.575 6.164-2.363 9.374-2.363 4.076 0 8.153 1.26 11.579 3.761 6.144 4.45 9.157 12.012 7.798 19.476l-35.21 191.665 141.174 134.38c5.455 5.218 7.444 13.135 5.12 20.342zM654.159 393.531c-4.805-4.588-6.991-11.284-5.79-17.822l29.716-161.713-144.64 78.257c-2.914 1.575-6.144 2.363-9.374 2.363s-6.439-0.788-9.374-2.363l-144.64-78.257 29.716 161.713c1.221 6.538-0.985 13.233-5.79 17.822l-119.119 113.369 163.033 21.74c6.577 0.886 12.268 5.022 15.163 11.028l70.991 148.283 70.991-148.283c2.875-6.006 8.586-10.142 15.163-11.028l163.033-21.74-119.079-113.369z" />
<glyph unicode="&#xe798;" d="M787.692 684.308v39.385c0 21.74-17.644 39.385-39.385 39.385h-39.385c-21.74 0-39.385-17.644-39.385-39.385 0 21.74-17.644 39.385-39.385 39.385h-19.692c-21.74 0-39.385-17.644-39.385-39.385 0 21.74-17.644 39.385-39.385 39.385h-19.692c-21.74 0-39.385-17.644-39.385-39.385 0 21.74-17.644 39.385-39.385 39.385h-19.692c-21.74 0-39.385-17.644-39.385-39.385 0 21.74-17.644 39.385-39.385 39.385h-39.385c-21.74 0-39.385-17.644-39.385-39.385v-39.385c0-21.74 17.644-39.385 39.385-39.385-21.74 0-39.385-17.644-39.385-39.385v-19.692c0-21.74 17.644-39.385 39.385-39.385-21.74 0-39.385-17.644-39.385-39.385v-19.692c0-21.74 17.644-39.385 39.385-39.385-21.74 0-39.385-17.644-39.385-39.385v-19.692c0-21.74 17.644-39.385 39.385-39.385-21.74 0-39.385-17.644-39.385-39.385v-19.692c0-21.74 17.644-39.385 39.385-39.385-21.74 0-39.385-17.644-39.385-39.385v-39.385c0-21.74 17.644-39.385 39.385-39.385h39.385c21.74 0 39.385 17.644 39.385 39.385 0-21.74 17.644-39.385 39.385-39.385h19.692c21.74 0 39.385 17.644 39.385 39.385 0-21.74 17.644-39.385 39.385-39.385h19.692c21.74 0 39.385 17.644 39.385 39.385 0-21.74 17.644-39.385 39.385-39.385h19.692c21.74 0 39.385 17.644 39.385 39.385 0-21.74 17.644-39.385 39.385-39.385h39.385c21.74 0 39.385 17.644 39.385 39.385v39.385c0 21.74-17.644 39.385-39.385 39.385 21.74 0 39.385 17.644 39.385 39.385v19.692c0 21.74-17.644 39.385-39.385 39.385 21.74 0 39.385 17.644 39.385 39.385v19.692c0 21.74-17.644 39.385-39.385 39.385 21.74 0 39.385 17.644 39.385 39.385v19.692c0 21.74-17.644 39.385-39.385 39.385 21.74 0 39.385 17.644 39.385 39.385v19.692c0 21.74-17.644 39.385-39.385 39.385 21.74 0 39.385 17.644 39.385 39.385zM748.308 684.308c-21.74 0-39.385-17.644-39.385-39.385s17.644-39.385 39.385-39.385v-19.692c-21.74 0-39.385-17.644-39.385-39.385s17.644-39.385 39.385-39.385v-19.692c-21.74 0-39.385-17.644-39.385-39.385s17.644-39.385 39.385-39.385v-19.692c-21.74 0-39.385-17.644-39.385-39.385s17.644-39.385 39.385-39.385v-19.692c-21.74 0-39.385-17.644-39.385-39.385s17.644-39.385 39.385-39.385v-39.385h-39.385c0 21.74-17.644 39.385-39.385 39.385s-39.385-17.644-39.385-39.385h-19.692c0 21.74-17.644 39.385-39.385 39.385s-39.385-17.644-39.385-39.385h-19.692c0 21.74-17.644 39.385-39.385 39.385s-39.385-17.644-39.385-39.385h-19.692c0 21.74-17.644 39.385-39.385 39.385s-39.385-17.644-39.385-39.385h-39.385v39.385c21.74 0 39.385 17.644 39.385 39.385s-17.644 39.385-39.385 39.385v19.692c21.74 0 39.385 17.644 39.385 39.385s-17.644 39.385-39.385 39.385v19.692c21.74 0 39.385 17.644 39.385 39.385s-17.644 39.385-39.385 39.385v19.692c21.74 0 39.385 17.644 39.385 39.385s-17.644 39.385-39.385 39.385v19.692c21.74 0 39.385 17.644 39.385 39.385s-17.644 39.385-39.385 39.385v39.385h39.385c0-21.74 17.644-39.385 39.385-39.385s39.385 17.644 39.385 39.385h19.692c0-21.74 17.644-39.385 39.385-39.385s39.385 17.644 39.385 39.385h19.692c0-21.74 17.644-39.385 39.385-39.385s39.385 17.644 39.385 39.385h19.692c0-21.74 17.644-39.385 39.385-39.385s39.385 17.644 39.385 39.385h39.385v-39.385z" />
<glyph unicode="&#xe799;" d="M600.064 720.286c-6.4 3.446-14.178 3.052-20.204-0.985l-170.673-113.762h-153.186c-10.87 0-19.692-8.802-19.692-19.692v-275.692c0-10.89 8.822-19.692 19.692-19.692h149.957l173.883-115.929c3.308-2.186 7.109-3.308 10.929-3.308 3.19 0 6.38 0.768 9.295 2.324 6.4 3.426 10.398 10.102 10.398 17.369v512c0 7.266-3.998 13.942-10.398 17.369zM393.846 329.846h-118.154v236.308h118.154v-236.308zM571.077 227.702l-137.846 91.904v254.622l137.846 91.904v-438.43zM658.255 542.759c-9.413-5.435-12.642-17.487-7.168-26.9 12.071-20.854 18.452-44.702 18.452-68.943 0-24.241-6.38-48.069-18.432-68.903-5.455-9.413-2.225-21.465 7.168-26.9 3.092-1.812 6.498-2.658 9.846-2.658 6.794 0 13.41 3.525 17.054 9.826 15.557 26.821 23.749 57.462 23.749 88.635 0 31.153-8.231 61.814-23.769 88.674-5.455 9.433-17.506 12.662-26.9 7.168zM748.111 653.745c-5.455 9.413-17.506 12.662-26.9 7.168-9.413-5.435-12.642-17.487-7.168-26.9 32.768-56.635 50.097-121.344 50.097-187.136 0-65.772-17.29-130.442-50.018-187.018-5.455-9.433-2.225-21.465 7.188-26.9 3.092-1.812 6.479-2.658 9.826-2.658 6.794 0 13.41 3.525 17.054 9.826 36.194 62.582 55.335 134.085 55.335 206.75 0 72.704-19.161 144.246-55.414 206.868z" />
<glyph unicode="&#xe79a;" d="M315.077 349.538c10.87 0 19.692 8.802 19.692 19.692v196.923h118.154v-98.462c0-10.89 8.822-19.692 19.692-19.692s19.692 8.802 19.692 19.692v107.067l137.846 91.471v-80.384c0-10.89 8.802-19.692 19.692-19.692s19.692 8.802 19.692 19.692v117.071c0 7.247-3.998 13.922-10.378 17.349-6.38 3.466-14.159 3.072-20.185-0.945l-171.481-113.782h-152.418c-10.87 0-19.692-8.802-19.692-19.692v-216.615c0-10.89 8.822-19.692 19.692-19.692zM649.846 448c-10.89 0-19.692-8.802-19.692-19.692v-200.507l-146.57 98.166c-9.039 6.046-21.268 3.663-27.333-5.396-6.046-9.039-3.623-21.268 5.396-27.333l177.231-118.686c3.308-2.206 7.109-3.328 10.969-3.328 3.19 0 6.361 0.768 9.275 2.324 6.42 3.426 10.417 10.102 10.417 17.369v237.391c0 10.89-8.802 19.692-19.692 19.692zM803.84 615.739c-6.223 8.901-18.491 11.087-27.431 4.884l-521.846-364.308c-8.921-6.223-11.106-18.491-4.884-27.431 3.82-5.474 9.945-8.428 16.167-8.428 3.899 0 7.818 1.162 11.244 3.545l521.846 364.308c8.94 6.223 11.146 18.491 4.903 27.431z" />
<glyph unicode="&#xe79b;" d="M708.923 802.462h-393.846c-32.571 0-59.077-26.506-59.077-59.077v-590.769c0-32.571 26.506-59.077 59.077-59.077h393.846c32.571 0 59.077 26.506 59.077 59.077v590.769c0 32.571-26.506 59.077-59.077 59.077zM728.615 152.615c0-10.831-8.862-19.692-19.692-19.692h-393.846c-10.831 0-19.692 8.862-19.692 19.692v590.769c0 10.831 8.862 19.692 19.692 19.692h393.846c10.831 0 19.692-8.862 19.692-19.692v-590.769zM512 526.769c-97.713 0-177.231-79.498-177.231-177.231s79.518-177.231 177.231-177.231c97.733 0 177.231 79.498 177.231 177.231s-79.498 177.231-177.231 177.231zM512 211.692c-76.012 0-137.846 61.854-137.846 137.846s61.834 137.846 137.846 137.846c76.012 0 137.846-61.854 137.846-137.846s-61.834-137.846-137.846-137.846zM512 448c-54.292 0-98.462-44.17-98.462-98.462s44.17-98.462 98.462-98.462 98.462 44.17 98.462 98.462-44.17 98.462-98.462 98.462zM512 290.462c-32.571 0-59.077 26.506-59.077 59.077s26.506 59.077 59.077 59.077 59.077-26.506 59.077-59.077-26.506-59.077-59.077-59.077zM571.097 565.839c43.599 0 79.065 35.466 79.065 79.084s-35.466 79.084-79.065 79.084c-43.618 0-79.104-35.466-79.104-79.084s35.486-79.084 79.104-79.084zM571.097 683.993c21.524 0 39.050-17.546 39.050-39.070s-17.546-39.070-39.050-39.070c-21.563 0-39.089 17.546-39.089 39.070s17.526 39.070 39.089 39.070z" />
<glyph unicode="&#xe79c;" d="M728.615 802.462h-433.231c-75.993 0-137.846-61.854-137.846-137.846v-433.231c0-75.993 61.854-137.846 137.846-137.846h433.231c75.993 0 137.846 61.854 137.846 137.846v433.231c0 75.993-61.854 137.846-137.846 137.846zM827.077 231.385c0-54.292-44.17-98.462-98.462-98.462h-433.231c-54.292 0-98.462 44.17-98.462 98.462v433.231c0 54.292 44.17 98.462 98.462 98.462h433.231c54.292 0 98.462-44.17 98.462-98.462v-433.231zM393.846 526.769c-43.441 0-78.769-35.328-78.769-78.769s35.328-78.769 78.769-78.769 78.769 35.328 78.769 78.769-35.328 78.769-78.769 78.769zM393.846 408.615c-21.721 0-39.385 17.664-39.385 39.385s17.664 39.385 39.385 39.385 39.385-17.664 39.385-39.385-17.664-39.385-39.385-39.385zM551.385 448c0-43.441 35.328-78.769 78.769-78.769s78.769 35.328 78.769 78.769-35.328 78.769-78.769 78.769-78.769-35.328-78.769-78.769zM669.538 448c0-21.721-17.664-39.385-39.385-39.385s-39.385 17.664-39.385 39.385 17.664 39.385 39.385 39.385 39.385-17.664 39.385-39.385zM512 723.692c-152.025 0-275.692-123.668-275.692-275.692s123.668-275.692 275.692-275.692 275.692 123.668 275.692 275.692-123.668 275.692-275.692 275.692zM512 211.692c-130.304 0-236.308 106.004-236.308 236.308s106.004 236.308 236.308 236.308 236.308-106.004 236.308-236.308-106.004-236.308-236.308-236.308z" />
<glyph unicode="&#xe79d;" d="M846.769 467.692h-52.027l45.154 45.154c7.7 7.7 7.7 20.145 0 27.845s-20.145 7.7-27.845 0l-72.999-72.999h-42.772l5.77 5.77c7.7 7.7 7.7 20.145 0 27.845s-20.145 7.7-27.845 0l-33.615-33.615h-81.073l57.324 57.324h47.537c10.89 0 19.692 8.822 19.692 19.692s-8.802 19.692-19.692 19.692h-8.153l30.228 30.228h103.227c10.89 0 19.692 8.822 19.692 19.692s-8.802 19.692-19.692 19.692h-63.842l36.785 36.785c7.7 7.7 7.7 20.145 0 27.845s-20.145 7.7-27.845 0l-36.785-36.785v63.862c0 10.87-8.802 19.692-19.692 19.692s-19.692-8.822-19.692-19.692v-103.247l-30.228-30.228v8.153c0 10.87-8.802 19.692-19.692 19.692s-19.692-8.822-19.692-19.692v-47.537l-57.305-57.305v81.054l33.615 33.615c7.7 7.7 7.7 20.145 0 27.845s-20.145 7.7-27.845 0l-5.77-5.77v42.772l72.999 72.999c7.7 7.7 7.7 20.145 0 27.845s-20.145 7.7-27.845 0l-45.154-45.154v52.007c0 10.87-8.802 19.692-19.692 19.692s-19.692-8.822-19.692-19.692v-52.007l-45.154 45.154c-7.7 7.7-20.145 7.7-27.845 0s-7.7-20.145 0-27.845l72.999-72.999v-42.772l-5.77 5.77c-7.7 7.7-20.145 7.7-27.845 0s-7.7-20.145 0-27.845l33.615-33.615v-81.093l-58.841 58.841v47.557c0 10.87-8.802 19.692-19.692 19.692s-19.692-8.822-19.692-19.692v-8.172l-30.247 30.247v103.247c0 10.87-8.802 19.692-19.692 19.692s-19.692-8.822-19.692-19.692v-63.862l-35.249 35.249c-7.7 7.7-20.145 7.7-27.845 0s-7.7-20.145 0-27.845l35.23-35.249h-63.823c-10.89 0-19.692-8.822-19.692-19.692s8.802-19.692 19.692-19.692h103.207l30.247-30.247h-8.153c-10.89 0-19.692-8.822-19.692-19.692s8.802-19.692 19.692-19.692h47.537l58.841-58.821h-83.22l-33.615 33.615c-7.7 7.7-20.145 7.7-27.845 0s-7.7-20.145 0-27.845l5.77-5.77h-42.772l-72.999 72.999c-7.7 7.7-20.145 7.7-27.845 0s-7.7-20.145 0-27.845l45.154-45.154h-49.841c-10.89 0-19.692-8.822-19.692-19.692s8.802-19.692 19.692-19.692h49.841l-45.154-45.154c-7.7-7.7-7.7-20.145 0-27.845 3.86-3.84 8.881-5.77 13.922-5.77s10.082 1.93 13.922 5.77l72.999 72.999h42.772l-5.77-5.77c-7.7-7.7-7.7-20.145 0-27.845 3.86-3.84 8.881-5.77 13.922-5.77s10.082 1.93 13.922 5.77l33.615 33.615h83.22l-58.821-58.821h-47.557c-10.89 0-19.692-8.822-19.692-19.692 0-10.89 8.802-19.712 19.692-19.712h8.153l-30.228-30.228h-103.247c-10.89 0-19.692-8.802-19.692-19.692s8.802-19.692 19.692-19.692h63.862l-35.249-35.249c-7.7-7.7-7.7-20.145 0-27.845 3.84-3.84 8.881-5.77 13.922-5.77s10.082 1.93 13.922 5.77l35.249 35.249v-63.842c0-10.89 8.802-19.692 19.692-19.692s19.692 8.802 19.692 19.692v103.227l30.228 30.228v-8.153c0-10.89 8.802-19.692 19.692-19.692s19.692 8.802 19.692 19.692v47.537l58.86 58.86v-83.259l-33.615-33.615c-7.7-7.7-7.7-20.145 0-27.845s20.145-7.7 27.845 0l5.77 5.77v-42.772l-72.999-72.999c-7.7-7.7-7.7-20.145 0-27.845s20.145-7.7 27.845 0l45.154 45.154v-49.841c0-10.89 8.802-19.692 19.692-19.692s19.692 8.802 19.692 19.692v49.841l45.154-45.154c3.84-3.84 8.881-5.77 13.922-5.77s10.082 1.93 13.922 5.77c7.7 7.7 7.7 20.145 0 27.845l-72.999 72.999v42.772l5.77-5.77c3.84-3.84 8.881-5.77 13.922-5.77s10.082 1.93 13.922 5.77c7.7 7.7 7.7 20.145 0 27.845l-33.615 33.615v83.22l57.305-57.305v-47.537c0-10.89 8.802-19.692 19.692-19.692s19.692 8.802 19.692 19.692v8.153l30.228-30.228v-103.227c0-10.89 8.802-19.692 19.692-19.692s19.692 8.802 19.692 19.692v63.842l36.785-36.785c3.84-3.84 8.881-5.77 13.922-5.77s10.082 1.93 13.922 5.77c7.7 7.7 7.7 20.145 0 27.845l-36.785 36.785h63.862c10.89 0 19.692 8.802 19.692 19.692s-8.802 19.692-19.692 19.692h-103.247l-30.228 30.228h8.153c10.89 0 19.692 8.822 19.692 19.692 0 10.89-8.802 19.692-19.692 19.692h-47.537l-57.324 57.324h81.073l33.615-33.615c3.86-3.84 8.881-5.77 13.922-5.77s10.082 1.93 13.922 5.77c7.7 7.7 7.7 20.145 0 27.845l-5.77 5.77h42.772l72.999-72.999c3.86-3.84 8.881-5.77 13.922-5.77s10.082 1.93 13.922 5.77c7.7 7.7 7.7 20.145 0 27.845l-45.154 45.154h52.027c10.89 0 19.692 8.822 19.692 19.692s-8.802 19.692-19.692 19.692z" />
<glyph unicode="&#xe79e;" d="M512 782.769c-184.596 0-334.769-150.174-334.769-334.769s150.174-334.769 334.769-334.769 334.769 150.174 334.769 334.769-150.174 334.769-334.769 334.769zM512 152.615c-162.875 0-295.385 132.51-295.385 295.385s132.51 295.385 295.385 295.385 295.385-132.51 295.385-295.385-132.51-295.385-295.385-295.385zM610.462 605.538c-43.422 0-78.769-35.328-78.769-78.769s35.348-78.769 78.769-78.769 78.769 35.328 78.769 78.769-35.348 78.769-78.769 78.769zM610.462 487.385c-21.74 0-39.385 17.664-39.385 39.385s17.644 39.385 39.385 39.385 39.385-17.664 39.385-39.385-17.644-39.385-39.385-39.385zM382.425 267.559c-8.704-6.498-10.496-18.826-3.998-27.55 6.479-8.724 18.806-10.516 27.53-4.017 62.543 46.572 149.839 46.572 212.303 0 3.545-2.639 7.66-3.899 11.756-3.899 6.026 0 11.934 2.737 15.813 7.916 6.498 8.704 4.706 21.051-4.017 27.55-76.308 56.911-182.981 56.911-259.387 0zM472.615 526.769c0 43.441-35.348 78.769-78.769 78.769s-78.769-35.328-78.769-78.769 35.348-78.769 78.769-78.769 78.769 35.328 78.769 78.769zM354.462 526.769c0 21.721 17.644 39.385 39.385 39.385s39.385-17.664 39.385-39.385-17.644-39.385-39.385-39.385-39.385 17.664-39.385 39.385z" />
<glyph unicode="&#xe79f;" d="M512 782.769c-184.596 0-334.769-150.174-334.769-334.769s150.174-334.769 334.769-334.769 334.769 150.174 334.769 334.769-150.174 334.769-334.769 334.769zM512 152.615c-162.875 0-295.385 132.51-295.385 295.385s132.51 295.385 295.385 295.385 295.385-132.51 295.385-295.385-132.51-295.385-295.385-295.385zM393.846 448c43.422 0 78.769 35.328 78.769 78.769s-35.348 78.769-78.769 78.769-78.769-35.328-78.769-78.769 35.348-78.769 78.769-78.769zM393.846 566.154c21.74 0 39.385-17.664 39.385-39.385s-17.644-39.385-39.385-39.385-39.385 17.664-39.385 39.385 17.644 39.385 39.385 39.385zM610.462 448c43.422 0 78.769 35.328 78.769 78.769s-35.348 78.769-78.769 78.769-78.769-35.328-78.769-78.769 35.348-78.769 78.769-78.769zM610.462 566.154c21.74 0 39.385-17.664 39.385-39.385s-17.644-39.385-39.385-39.385-39.385 17.664-39.385 39.385 17.644 39.385 39.385 39.385zM678.794 329.846h-333.588c-7.641 0-14.553-4.411-17.822-11.303-3.23-6.912-2.206-15.065 2.658-20.933 45.135-54.607 111.458-85.918 181.957-85.918s136.822 31.311 181.957 85.918c4.864 5.868 5.888 14.021 2.658 20.933-3.269 6.892-10.201 11.303-17.822 11.303zM512 251.077c-43.008 0-84.145 14.001-117.878 39.385h235.776c-33.753-25.383-74.89-39.385-117.898-39.385z" />
<glyph unicode="&#xe7a0;" d="M512 782.769c-184.596 0-334.769-150.174-334.769-334.769s150.174-334.769 334.769-334.769 334.769 150.174 334.769 334.769-150.174 334.769-334.769 334.769zM512 152.615c-162.875 0-295.385 132.51-295.385 295.385s132.51 295.385 295.385 295.385 295.385-132.51 295.385-295.385-132.51-295.385-295.385-295.385zM472.615 526.769c0 43.441-35.348 78.769-78.769 78.769s-78.769-35.328-78.769-78.769 35.348-78.769 78.769-78.769 78.769 35.328 78.769 78.769zM354.462 526.769c0 21.721 17.644 39.385 39.385 39.385s39.385-17.664 39.385-39.385-17.644-39.385-39.385-39.385-39.385 17.664-39.385 39.385zM610.462 605.538c-43.422 0-78.769-35.328-78.769-78.769s35.348-78.769 78.769-78.769 78.769 35.328 78.769 78.769-35.348 78.769-78.769 78.769zM610.462 487.385c-21.74 0-39.385 17.664-39.385 39.385s17.644 39.385 39.385 39.385 39.385-17.664 39.385-39.385-17.644-39.385-39.385-39.385zM618.26 306.255c-62.543-46.572-149.839-46.572-212.303 0-8.724 6.518-21.071 4.706-27.55-4.017-6.498-8.704-4.706-21.051 4.017-27.55 38.164-28.455 83.909-42.693 129.654-42.693 45.765 0 91.53 14.238 129.733 42.693 8.704 6.498 10.496 18.826 3.998 27.55-6.479 8.724-18.806 10.535-27.55 4.017z" />
<glyph unicode="&#xe7a1;" d="M787.692 841.846h-354.462c-32.571 0-59.077-26.506-59.077-59.077v-669.538c0-32.571 26.506-59.077 59.077-59.077h354.462c32.571 0 59.077 26.506 59.077 59.077v669.538c0 32.571-26.506 59.077-59.077 59.077zM413.538 684.308h393.846v-433.231h-393.846v433.231zM433.231 802.462h354.462c10.85 0 19.692-8.822 19.692-19.692v-59.077h-393.846v59.077c0 10.87 8.842 19.692 19.692 19.692zM787.692 93.538h-354.462c-10.85 0-19.692 8.822-19.692 19.692v98.462h393.846v-98.462c0-10.87-8.842-19.692-19.692-19.692zM334.769 841.846h-98.462c-32.571 0-59.077-26.506-59.077-59.077v-669.538c0-32.571 26.506-59.077 59.077-59.077h98.462c10.87 0 19.692 8.802 19.692 19.692s-8.822 19.692-19.692 19.692h-98.462c-10.85 0-19.692 8.822-19.692 19.692v669.538c0 10.87 8.842 19.692 19.692 19.692h98.462c10.87 0 19.692 8.802 19.692 19.692s-8.822 19.692-19.692 19.692zM531.692 743.385h157.538c10.89 0 19.692 8.802 19.692 19.692s-8.802 19.692-19.692 19.692h-157.538c-10.87 0-19.692-8.802-19.692-19.692s8.822-19.692 19.692-19.692zM334.769 763.077h-78.769c-10.87 0-19.692-8.802-19.692-19.692v-590.769c0-10.89 8.822-19.692 19.692-19.692h78.769c10.87 0 19.692 8.802 19.692 19.692v590.769c0 10.89-8.822 19.692-19.692 19.692zM275.692 467.692v59.077h39.385v-59.077h-39.385zM315.077 428.308v-59.077h-39.385v59.077h39.385zM275.692 566.154v59.077h39.385v-59.077h-39.385zM275.692 329.846h39.385v-59.077h-39.385v59.077zM315.077 723.692v-59.077h-39.385v59.077h39.385zM275.692 172.308v59.077h39.385v-59.077h-39.385zM649.846 192h-78.769c-10.89 0-19.692-8.802-19.692-19.692v-39.385c0-10.89 8.802-19.692 19.692-19.692h78.769c10.89 0 19.692 8.802 19.692 19.692v39.385c0 10.89-8.802 19.692-19.692 19.692z" />
<glyph unicode="&#xe7a2;" d="M689.231 841.846h-354.462c-32.571 0-59.077-26.506-59.077-59.077v-669.538c0-32.571 26.506-59.077 59.077-59.077h354.462c32.571 0 59.077 26.506 59.077 59.077v669.538c0 32.571-26.506 59.077-59.077 59.077zM315.077 684.308h393.846v-433.231h-393.846v433.231zM334.769 802.462h354.462c10.85 0 19.692-8.822 19.692-19.692v-59.077h-393.846v59.077c0 10.87 8.842 19.692 19.692 19.692zM689.231 93.538h-354.462c-10.85 0-19.692 8.822-19.692 19.692v98.462h393.846v-98.462c0-10.87-8.842-19.692-19.692-19.692zM433.231 743.385h157.538c10.89 0 19.692 8.802 19.692 19.692s-8.802 19.692-19.692 19.692h-157.538c-10.87 0-19.692-8.802-19.692-19.692s8.822-19.692 19.692-19.692zM551.385 192h-78.769c-10.87 0-19.692-8.802-19.692-19.692v-39.385c0-10.89 8.822-19.692 19.692-19.692h78.769c10.89 0 19.692 8.802 19.692 19.692v39.385c0 10.89-8.802 19.692-19.692 19.692z" />
<glyph unicode="&#xe7a3;" d="M452.962 566.154c-34.796 0-63.114-28.298-63.114-63.074 0-34.816 28.318-63.114 63.114-63.114 34.777 0 63.074 28.318 63.074 63.114 0 34.777-28.298 63.074-63.074 63.074zM452.962 479.35c-13.095 0-23.729 10.654-23.729 23.729 0 13.056 10.654 23.69 23.729 23.69 13.076 0 23.69-10.634 23.69-23.69 0-13.076-10.614-23.729-23.69-23.729zM827.077 501.465c0 32.571-26.506 59.077-59.077 59.077-26.151 0-48.128-17.191-55.887-40.783-8.645 135.582-121.423 243.318-259.151 243.318-143.38 0-260.037-116.638-260.037-259.998 0-84.106 40.33-158.799 102.459-206.356v-110.336c0-31.98 26.506-57.994 59.077-57.994h196.923c32.571 0 59.077 26.014 59.077 57.994v16.758c94.031 49.428 158.799 138.969 176.423 242.629 23.296 7.916 40.192 29.735 40.192 55.69zM768 521.157c10.85 0 19.692-8.822 19.692-19.692s-8.842-19.692-19.692-19.692-19.692 8.822-19.692 19.692 8.842 19.692 19.692 19.692zM571.077 186.388c0-10.437-8.645-18.609-19.692-18.609h-196.923c-11.047 0-19.692 8.172-19.692 18.609v85.346c35.505-18.215 75.618-28.692 118.193-28.692 42.555 0 82.609 10.476 118.114 28.672v-85.327zM452.962 282.427c-121.679 0-220.652 98.974-220.652 220.652 0 121.659 98.974 220.613 220.652 220.613 121.659 0 220.613-98.954 220.613-220.613 0-121.679-98.954-220.652-220.613-220.652zM610.462 248.497v48.148c57.423 43.934 95.764 111.163 101.356 187.451 5.337-17.191 18.137-31.035 34.777-37.553-15.714-82.196-64.709-153.895-136.133-198.046z" />
<glyph unicode="&#xe7a4;" d="M415.744 292.234c0 26.841-34.54 78.395-45.135 93.578l-16.148 23.138-16.148-23.138c-10.594-15.183-45.135-66.737-45.135-93.578 0-33.556 27.49-60.849 61.282-60.849s61.282 27.294 61.282 60.849zM354.462 270.769c-12.071 0-21.898 9.63-21.898 21.465 0.098 6.459 9.295 25.364 21.898 46.198 12.623-20.834 21.799-39.739 21.898-46.198 0-11.835-9.826-21.465-21.898-21.465zM573.282 292.234c0 26.841-34.56 78.395-45.135 93.578l-16.148 23.138-16.148-23.138c-10.594-15.183-45.135-66.737-45.135-93.578 0-33.556 27.49-60.849 61.282-60.849 33.812 0 61.282 27.294 61.282 60.849zM512 270.769c-12.071 0-21.898 9.63-21.898 21.465 0.098 6.459 9.295 25.364 21.898 46.198 12.623-20.834 21.799-39.739 21.898-46.198 0-11.835-9.826-21.465-21.898-21.465zM730.821 292.234c0 26.841-34.56 78.395-45.135 93.578l-16.148 23.138-16.148-23.138c-10.575-15.183-45.135-66.737-45.135-93.578 0-33.556 27.49-60.849 61.282-60.849s61.282 27.294 61.282 60.849zM669.538 270.769c-12.071 0-21.898 9.63-21.898 21.465 0.098 6.459 9.295 25.364 21.898 46.198 12.623-20.834 21.799-39.739 21.898-46.198 0-11.835-9.826-21.465-21.898-21.465zM433.231 231.719l-16.148-23.138c-10.594-15.183-45.135-66.737-45.135-93.578 0-33.556 27.49-60.849 61.282-60.849s61.282 27.294 61.282 60.849c0 26.841-34.54 78.395-45.135 93.578l-16.148 23.138zM433.231 93.538c-12.071 0-21.898 9.63-21.898 21.465 0.098 6.459 9.295 25.364 21.898 46.198 12.623-20.834 21.799-39.739 21.898-46.198 0-11.835-9.826-21.465-21.898-21.465zM590.769 231.719l-16.148-23.138c-10.575-15.183-45.135-66.737-45.135-93.578 0-33.556 27.49-60.849 61.282-60.849s61.282 27.294 61.282 60.849c0 26.841-34.56 78.395-45.135 93.578l-16.148 23.138zM590.769 93.538c-12.071 0-21.898 9.63-21.898 21.465 0.098 6.459 9.295 25.364 21.898 46.198 12.623-20.834 21.799-39.739 21.898-46.198 0-11.835-9.826-21.465-21.898-21.465zM275.692 231.719l-16.148-23.138c-10.594-15.183-45.135-66.737-45.135-93.578 0-33.556 27.49-60.849 61.282-60.849s61.282 27.294 61.282 60.849c0 26.841-34.54 78.395-45.135 93.578l-16.148 23.138zM275.692 93.538c-12.071 0-21.898 9.63-21.898 21.465 0.098 6.459 9.295 25.364 21.898 46.198 12.623-20.834 21.799-39.739 21.898-46.198 0-11.835-9.826-21.465-21.898-21.465zM764.455 208.581l-16.148 23.138-16.148-23.138c-10.575-15.183-45.135-66.737-45.135-93.578 0-33.556 27.49-60.849 61.282-60.849s61.282 27.294 61.282 60.849c0 26.841-34.56 78.395-45.135 93.578zM748.308 93.538c-12.071 0-21.898 9.63-21.898 21.465 0.098 6.459 9.295 25.364 21.898 46.198 12.623-20.834 21.799-39.739 21.898-46.198 0-11.835-9.826-21.465-21.898-21.465zM256 434.215h19.692c21.662 0 46.651 16.167 55.552 35.919 0 0 1.556 3.466 23.217 3.466s23.217-3.466 23.217-3.466c8.901-19.751 33.89-35.919 55.552-35.919s46.651 16.167 55.552 35.919c0 0 1.556 3.466 23.217 3.466 21.662 0 23.237-3.466 23.237-3.466 8.881-19.751 33.871-35.919 55.532-35.919s46.651 16.167 55.532 35.919c0 0 1.575 3.466 23.237 3.466s23.237-3.466 23.237-3.466c8.881-19.751 33.871-35.919 55.532-35.919h19.692c21.662 0 39.385 17.703 39.385 39.385v92.554c0 21.662-16.463 45.962-36.569 53.996l-222.228 88.93c-4.982 1.989-10.732 3.486-16.876 4.49v108.583c0 10.89-8.822 19.692-19.692 19.692s-19.692-8.802-19.692-19.692v-108.603c-6.144-1.004-11.894-2.501-16.876-4.49l-222.247-88.93c-20.145-8.015-36.588-32.315-36.588-53.977v-92.554c0-21.681 17.723-39.385 39.385-39.385zM256 566.154c0 5.573 6.617 15.34 11.815 17.428l222.228 88.911c3.899 1.556 11.697 3.23 21.957 3.23s18.058-1.674 21.918-3.23l222.267-88.911c5.199-2.087 11.815-11.855 11.815-17.428v-92.554h-19.692c-6.124 0-17.113 7.129-19.633 12.721-12.012 26.663-43.835 26.663-59.136 26.663s-47.124 0-59.136-26.663c-2.521-5.593-13.509-12.721-19.633-12.721s-17.113 7.129-19.633 12.721c-12.012 26.663-43.835 26.663-59.136 26.663s-47.124 0-59.136-26.663c-2.501-5.593-13.509-12.721-19.633-12.721s-17.132 7.129-19.633 12.721c-12.012 26.663-43.835 26.663-59.136 26.663s-47.124 0-59.136-26.663c-2.501-5.593-13.509-12.721-19.633-12.721h-19.692v92.554z" />
</font>
</defs>
</svg>
